<svg width="171" height="154" viewBox="0 0 171 154" fill="none" xmlns="http://www.w3.org/2000/svg">
<g clip-path="url(#clip0_60_2097)">
<path d="M87.5746 0.335736L82.0106 1.77553L13.4605 19.5141L7.89644 20.9539C5.19572 21.656 2.88284 23.4044 1.46521 25.8156C0.0475743 28.2267 -0.359028 31.1037 0.334602 33.8153L24.4615 127.696C25.1612 130.406 26.9036 132.727 29.3065 134.15C31.7094 135.572 34.5764 135.98 37.2787 135.284L37.2931 135.28L116.943 114.67L116.957 114.666C119.658 113.964 121.97 112.215 123.388 109.804C124.806 107.393 125.212 104.516 124.519 101.805L100.392 7.92367C99.6921 5.21364 97.9497 2.89278 95.5468 1.47026C93.144 0.0477331 90.2769 -0.360279 87.5746 0.335736Z" fill="#F2F2F2"/>
<path d="M88.3312 3.27922L81.741 4.98456L15.243 22.1921L8.65292 23.8974C6.72967 24.3974 5.0826 25.6425 4.07307 27.3595C3.06354 29.0765 2.77398 31.1253 3.26793 33.0563L27.3948 126.937C27.8931 128.867 29.1339 130.52 30.8451 131.533C32.5562 132.546 34.5979 132.836 36.5223 132.341L36.5367 132.337L116.186 111.726L116.201 111.722C118.124 111.222 119.771 109.977 120.78 108.26C121.79 106.543 122.079 104.495 121.585 102.564L97.4585 8.68277C96.9603 6.75291 95.7195 5.10018 94.0083 4.08717C92.2972 3.07416 90.2555 2.78359 88.3312 3.27922Z" fill="#FEFBFC"/>
<path d="M83.3549 33.6803L43.0622 44.1068C42.6122 44.2232 42.1345 44.1555 41.7342 43.9185C41.334 43.6816 41.0439 43.2947 40.9278 42.8432C40.8118 42.3916 40.8793 41.9122 41.1154 41.5106C41.3516 41.1089 41.7371 40.8179 42.1871 40.7014L82.4798 30.2749C82.9297 30.1589 83.407 30.2269 83.807 30.4639C84.2069 30.7009 84.4967 31.0876 84.6127 31.5389C84.7287 31.9902 84.6614 32.4693 84.4255 32.8708C84.1897 33.2723 83.8046 33.5635 83.3549 33.6803Z" fill="#F2F2F2"/>
<path d="M91.8312 37.6156L44.539 49.8533C44.089 49.9698 43.6113 49.9021 43.211 49.6651C42.8108 49.4281 42.5207 49.0413 42.4046 48.5897C42.2886 48.1381 42.3561 47.6588 42.5922 47.2571C42.8284 46.8555 43.2139 46.5644 43.6639 46.4479L90.956 34.2103C91.4061 34.0938 91.8838 34.1615 92.2841 34.3985C92.6843 34.6354 92.9744 35.0223 93.0905 35.4738C93.2065 35.9254 93.139 36.4048 92.9029 36.8064C92.6667 37.2081 92.2812 37.4992 91.8312 37.6156Z" fill="#F2F2F2"/>
<path d="M89.9734 59.4332L49.6806 69.8597C49.4578 69.9174 49.2259 69.9304 48.998 69.8981C48.7701 69.8658 48.5508 69.7888 48.3526 69.6715C48.1544 69.5541 47.9812 69.3988 47.8429 69.2143C47.7045 69.0298 47.6037 68.8197 47.5462 68.5961C47.4888 68.3725 47.4758 68.1397 47.5079 67.9111C47.5401 67.6825 47.6169 67.4624 47.7338 67.2635C47.8507 67.0646 48.0056 66.8908 48.1894 66.752C48.3733 66.6131 48.5827 66.512 48.8055 66.4543L89.0982 56.0279C89.321 55.9702 89.553 55.9572 89.7809 55.9895C90.0087 56.0217 90.228 56.0988 90.4262 56.2161C90.6244 56.3334 90.7976 56.4888 90.936 56.6733C91.0744 56.8578 91.1751 57.0679 91.2326 57.2915C91.2901 57.5151 91.3031 57.7478 91.2709 57.9765C91.2387 58.2051 91.162 58.4252 91.045 58.624C90.9281 58.8229 90.7733 58.9968 90.5894 59.1356C90.4055 59.2744 90.1962 59.3756 89.9734 59.4332Z" fill="#F2F2F2"/>
<path d="M98.4496 63.3685L51.1575 75.6062C50.9346 75.6639 50.7027 75.677 50.4748 75.6447C50.2469 75.6124 50.0276 75.5354 49.8294 75.418C49.6312 75.3007 49.458 75.1453 49.3197 74.9608C49.1813 74.7763 49.0805 74.5662 49.023 74.3427C48.9656 74.1191 48.9526 73.8863 48.9848 73.6576C49.0169 73.429 49.0937 73.209 49.2106 73.0101C49.3275 72.8112 49.4824 72.6374 49.6662 72.4985C49.8501 72.3597 50.0595 72.2585 50.2823 72.2009L97.5744 59.9632C98.0245 59.8467 98.5022 59.9144 98.9024 60.1514C99.3027 60.3884 99.5928 60.7752 99.7089 61.2268C99.8249 61.6784 99.7574 62.1577 99.5213 62.5594C99.2851 62.961 98.8996 63.2521 98.4496 63.3685Z" fill="#F2F2F2"/>
<path d="M96.5917 85.1863L56.299 95.6128C55.8491 95.7288 55.3717 95.6609 54.9716 95.4239C54.5716 95.1869 54.2817 94.8002 54.1657 94.3489C54.0497 93.8975 54.1171 93.4184 54.353 93.0168C54.5889 92.6152 54.9741 92.3241 55.4238 92.2074L95.7165 81.7809C96.1666 81.6645 96.6443 81.7322 97.0445 81.9692C97.4448 82.2061 97.7349 82.5929 97.8509 83.0445C97.967 83.4961 97.8995 83.9754 97.6634 84.3771C97.4272 84.7788 97.0417 85.0698 96.5917 85.1863Z" fill="#F2F2F2"/>
<path d="M105.068 89.1216L57.7759 101.359C57.553 101.417 57.3209 101.43 57.0929 101.398C56.8649 101.366 56.6454 101.289 56.4471 101.172C56.2487 101.055 56.0753 100.899 55.9368 100.715C55.7984 100.53 55.6975 100.32 55.64 100.096C55.5825 99.8724 55.5695 99.6395 55.6017 99.4107C55.634 99.1819 55.7109 98.9618 55.828 98.7628C55.945 98.5639 56.1001 98.3901 56.2841 98.2513C56.4682 98.1125 56.6777 98.0114 56.9007 97.9539L104.193 85.7162C104.643 85.5998 105.121 85.6675 105.521 85.9045C105.921 86.1414 106.211 86.5282 106.327 86.9798C106.443 87.4314 106.376 87.9107 106.14 88.3124C105.904 88.7141 105.518 89.0051 105.068 89.1216Z" fill="#F2F2F2"/>
<path d="M36.1837 54.7975L21.9245 58.4873C21.7087 58.5429 21.4798 58.5103 21.2879 58.3968C21.096 58.2832 20.9569 58.0978 20.901 57.8814L17.6279 45.1451C17.5725 44.9285 17.6049 44.6988 17.7181 44.5063C17.8313 44.3137 18.016 44.1741 18.2317 44.1181L32.4909 40.4282C32.7067 40.3727 32.9356 40.4052 33.1275 40.5188C33.3193 40.6324 33.4585 40.8177 33.5143 41.0341L36.7875 53.7705C36.8429 53.9871 36.8104 54.2168 36.6972 54.4093C36.584 54.6018 36.3994 54.7415 36.1837 54.7975Z" fill="#E6E6E6"/>
<path d="M42.8021 80.5505L28.5429 84.2404C28.3271 84.296 28.0982 84.2634 27.9063 84.1498C27.7144 84.0362 27.5753 83.8509 27.5195 83.6345L24.2463 70.8981C24.1909 70.6816 24.2233 70.4519 24.3365 70.2593C24.4497 70.0668 24.6344 69.9272 24.8501 69.8711L39.1093 66.1813C39.3251 66.1257 39.554 66.1583 39.7459 66.2719C39.9377 66.3855 40.0769 66.5708 40.1327 66.7872L43.4059 79.5236C43.4613 79.7401 43.4288 79.9698 43.3156 80.1624C43.2024 80.3549 43.0178 80.4945 42.8021 80.5505Z" fill="#E6E6E6"/>
<path d="M49.4205 106.303L35.1613 109.993C34.9455 110.049 34.7166 110.016 34.5247 109.903C34.3329 109.789 34.1937 109.604 34.1379 109.387L30.8647 96.651C30.8093 96.4345 30.8417 96.2048 30.9549 96.0123C31.0681 95.8197 31.2528 95.6801 31.4685 95.6241L45.7277 91.9342C45.9435 91.8786 46.1724 91.9112 46.3643 92.0248C46.5561 92.1384 46.6953 92.3237 46.7511 92.5401L50.0243 105.277C50.0797 105.493 50.0473 105.723 49.9341 105.915C49.8209 106.108 49.6362 106.247 49.4205 106.303Z" fill="#E6E6E6"/>
<path d="M143.146 24.1333H60.8613C58.0714 24.1365 55.3967 25.2499 53.4239 27.2295C51.4512 29.209 50.3415 31.893 50.3384 34.6925V131.645C50.3415 134.444 51.4512 137.128 53.4239 139.108C55.3967 141.087 58.0714 142.201 60.8613 142.204H143.146C145.936 142.201 148.611 141.087 150.584 139.108C152.556 137.128 153.666 134.444 153.669 131.645V34.6925C153.666 31.893 152.556 29.209 150.584 27.2295C148.611 25.2499 145.936 24.1365 143.146 24.1333Z" fill="#E6E6E6"/>
<path d="M143.146 27.1731H60.8613C58.8745 27.1753 56.9698 27.9683 55.565 29.3779C54.1601 30.7876 53.3699 32.6989 53.3677 34.6925V131.645C53.3699 133.638 54.1601 135.55 55.565 136.959C56.9698 138.369 58.8745 139.162 60.8613 139.164H143.146C145.133 139.162 147.038 138.369 148.443 136.959C149.847 135.55 150.638 133.638 150.64 131.645V34.6925C150.638 32.6989 149.847 30.7877 148.443 29.378C147.038 27.9683 145.133 27.1754 143.146 27.1731Z" fill="#FEFBFC"/>
<path d="M151.791 154C162.4 154 171 145.37 171 134.725C171 124.079 162.4 115.449 151.791 115.449C141.182 115.449 132.582 124.079 132.582 134.725C132.582 145.37 141.182 154 151.791 154Z" fill="#BA2649"/>
<path d="M160.978 132.211H154.296V125.506C154.296 124.839 154.032 124.2 153.562 123.728C153.093 123.257 152.455 122.992 151.791 122.992C151.126 122.992 150.489 123.257 150.019 123.728C149.549 124.2 149.285 124.839 149.285 125.506V132.211H142.604C141.939 132.211 141.302 132.475 140.832 132.947C140.362 133.418 140.098 134.058 140.098 134.725C140.098 135.392 140.362 136.031 140.832 136.503C141.302 136.974 141.939 137.239 142.604 137.239H149.285V143.943C149.285 144.61 149.549 145.25 150.019 145.721C150.489 146.193 151.126 146.458 151.791 146.458C152.455 146.458 153.093 146.193 153.562 145.721C154.032 145.25 154.296 144.61 154.296 143.943V137.239H160.978C161.642 137.239 162.28 136.974 162.749 136.503C163.219 136.031 163.483 135.392 163.483 134.725C163.483 134.058 163.219 133.418 162.749 132.947C162.28 132.475 161.642 132.211 160.978 132.211Z" fill="#FEFBFC"/>
<path d="M130.762 80.4482H89.1514C88.9211 80.4484 88.693 80.4031 88.4802 80.3149C88.2674 80.2266 88.074 80.0971 87.911 79.9338C87.7481 79.7705 87.6189 79.5766 87.5307 79.3631C87.4425 79.1497 87.3971 78.9209 87.3971 78.6898C87.3971 78.4587 87.4425 78.2299 87.5307 78.0164C87.6189 77.803 87.7481 77.609 87.911 77.4457C88.074 77.2824 88.2674 77.1529 88.4802 77.0647C88.693 76.9764 88.9211 76.9311 89.1514 76.9314H130.762C131.227 76.9319 131.672 77.1174 132 77.4471C132.328 77.7768 132.513 78.2238 132.513 78.6898C132.513 79.1558 132.328 79.6027 132 79.9325C131.672 80.2622 131.227 80.4476 130.762 80.4482Z" fill="#E6E6E6"/>
<path d="M137.991 86.3827H89.1514C88.9211 86.383 88.693 86.3377 88.4802 86.2494C88.2674 86.1612 88.074 86.0317 87.911 85.8684C87.7481 85.7051 87.6189 85.5112 87.5307 85.2977C87.4425 85.0842 87.3971 84.8554 87.3971 84.6243C87.3971 84.3933 87.4425 84.1645 87.5307 83.951C87.6189 83.7375 87.7481 83.5436 87.911 83.3803C88.074 83.217 88.2674 83.0875 88.4802 82.9992C88.693 82.911 88.9211 82.8657 89.1514 82.866H137.991C138.456 82.866 138.901 83.0512 139.23 83.381C139.558 83.7107 139.743 84.158 139.743 84.6243C139.743 85.0907 139.558 85.538 139.23 85.8677C138.901 86.1975 138.456 86.3827 137.991 86.3827Z" fill="#E6E6E6"/>
<path d="M130.762 107.044H89.1514C88.9211 107.044 88.693 106.999 88.4802 106.91C88.2674 106.822 88.074 106.693 87.911 106.529C87.7481 106.366 87.6189 106.172 87.5307 105.959C87.4425 105.745 87.3971 105.516 87.3971 105.285C87.3971 105.054 87.4425 104.825 87.5307 104.612C87.6189 104.399 87.7481 104.205 87.911 104.041C88.074 103.878 88.2674 103.749 88.4802 103.66C88.693 103.572 88.9211 103.527 89.1514 103.527H130.762C131.227 103.527 131.673 103.712 132.001 104.042C132.33 104.372 132.515 104.819 132.515 105.285C132.515 105.752 132.33 106.199 132.001 106.529C131.673 106.858 131.227 107.044 130.762 107.044Z" fill="#E6E6E6"/>
<path d="M137.991 112.978H89.1514C88.9211 112.978 88.693 112.933 88.4802 112.845C88.2674 112.757 88.074 112.627 87.911 112.464C87.7481 112.301 87.6189 112.107 87.5307 111.893C87.4425 111.68 87.3971 111.451 87.3971 111.22C87.3971 110.989 87.4425 110.76 87.5307 110.546C87.6189 110.333 87.7481 110.139 87.911 109.976C88.074 109.812 88.2674 109.683 88.4802 109.595C88.693 109.506 88.9211 109.461 89.1514 109.461H137.991C138.221 109.461 138.449 109.506 138.662 109.595C138.875 109.683 139.068 109.812 139.231 109.976C139.394 110.139 139.523 110.333 139.611 110.546C139.7 110.76 139.745 110.989 139.745 111.22C139.745 111.451 139.7 111.68 139.611 111.893C139.523 112.107 139.394 112.301 139.231 112.464C139.068 112.627 138.875 112.757 138.662 112.845C138.449 112.933 138.221 112.978 137.991 112.978Z" fill="#E6E6E6"/>
<path d="M79.8302 89.0767H65.1045C64.8818 89.0764 64.6682 88.9875 64.5107 88.8294C64.3531 88.6714 64.2645 88.4571 64.2643 88.2335V75.0805C64.2645 74.8569 64.3531 74.6426 64.5107 74.4845C64.6682 74.3265 64.8818 74.2375 65.1045 74.2373H79.8302C80.053 74.2375 80.2666 74.3265 80.4241 74.4845C80.5816 74.6426 80.6703 74.8569 80.6705 75.0805V88.2335C80.6703 88.4571 80.5816 88.6714 80.4241 88.8294C80.2666 88.9875 80.053 89.0764 79.8302 89.0767Z" fill="#E6E6E6"/>
<path d="M79.8302 115.672H65.1045C64.8818 115.672 64.6682 115.583 64.5107 115.425C64.3531 115.267 64.2645 115.053 64.2643 114.829V101.676C64.2645 101.452 64.3531 101.238 64.5107 101.08C64.6682 100.922 64.8818 100.833 65.1045 100.833H79.8302C80.053 100.833 80.2666 100.922 80.4241 101.08C80.5816 101.238 80.6703 101.452 80.6705 101.676V114.829C80.6703 115.053 80.5816 115.267 80.4241 115.425C80.2666 115.583 80.053 115.672 79.8302 115.672Z" fill="#E6E6E6"/>
<path d="M130.808 50.8421H100.13C99.6656 50.8421 99.2199 50.6568 98.8913 50.3271C98.5627 49.9973 98.3781 49.55 98.3781 49.0837C98.3781 48.6173 98.5627 48.1701 98.8913 47.8403C99.2199 47.5106 99.6656 47.3253 100.13 47.3253H130.808C131.273 47.3253 131.719 47.5106 132.048 47.8403C132.376 48.1701 132.561 48.6173 132.561 49.0837C132.561 49.55 132.376 49.9973 132.048 50.3271C131.719 50.6568 131.273 50.8421 130.808 50.8421Z" fill="#CCCCCC"/>
<path d="M138.037 56.7766H100.13C99.9003 56.7766 99.6724 56.7312 99.4598 56.6428C99.2472 56.5544 99.054 56.4249 98.8913 56.2616C98.7286 56.0984 98.5995 55.9045 98.5114 55.6912C98.4234 55.4778 98.3781 55.2492 98.3781 55.0183C98.3781 54.7874 98.4234 54.5587 98.5114 54.3454C98.5995 54.132 98.7286 53.9382 98.8913 53.7749C99.054 53.6116 99.2472 53.4821 99.4598 53.3937C99.6724 53.3054 99.9003 53.2599 100.13 53.2599H138.037C138.502 53.2599 138.947 53.4451 139.276 53.7749C139.605 54.1047 139.789 54.5519 139.789 55.0183C139.789 55.4846 139.605 55.9319 139.276 56.2616C138.947 56.5914 138.502 56.7766 138.037 56.7766Z" fill="#CCCCCC"/>
<path d="M93.3409 63.9685H65.0584C64.8356 63.9683 64.622 63.8793 64.4645 63.7213C64.307 63.5632 64.2184 63.3489 64.2181 63.1254V40.9764C64.2184 40.7529 64.307 40.5386 64.4645 40.3805C64.622 40.2225 64.8356 40.1335 65.0584 40.1333H93.3409C93.5637 40.1335 93.7772 40.2225 93.9348 40.3805C94.0923 40.5386 94.1809 40.7529 94.1811 40.9764V63.1254C94.1809 63.3489 94.0923 63.5632 93.9348 63.7213C93.7772 63.8793 93.5637 63.9683 93.3409 63.9685Z" fill="#BA2649"/>
</g>
<defs>
<clipPath id="clip0_60_2097">
<rect width="171" height="154" fill="white"/>
</clipPath>
</defs>
</svg>
