<svg width="219" height="199" viewBox="0 0 219 199" fill="none" xmlns="http://www.w3.org/2000/svg">
<g clip-path="url(#clip0_50_982)">
<path d="M219 99.5C219.022 113.361 216.136 127.072 210.528 139.747C210.347 140.156 210.163 140.563 209.977 140.967C209.885 141.171 209.791 141.372 209.697 141.575C209.603 141.776 209.508 141.98 209.412 142.181C209.288 142.441 209.164 142.699 209.037 142.957C208.881 143.282 208.722 143.605 208.559 143.928C208.539 143.972 208.516 144.017 208.492 144.062C208.355 144.335 208.219 144.607 208.077 144.88C208.048 144.94 208.018 145 207.986 145.057C207.824 145.374 207.658 145.692 207.49 146.007V146.009C207.311 146.344 207.132 146.679 206.951 147.012C206.505 147.836 206.046 148.652 205.575 149.461C205.434 149.702 205.295 149.942 205.151 150.18C205.019 150.404 204.888 150.625 204.754 150.845C204.662 150.999 204.571 151.151 204.476 151.302C204.327 151.548 204.176 151.793 204.022 152.039C204.02 152.041 204.02 152.041 204.02 152.044C203.68 152.59 203.333 153.133 202.983 153.672H202.981C202.82 153.922 202.656 154.17 202.492 154.419V154.421C201.999 155.165 201.495 155.902 200.982 156.632V156.634C200.98 156.635 200.978 156.635 200.977 156.637V156.639L200.972 156.644C200.565 157.227 200.15 157.806 199.727 158.379V158.381C199.457 158.748 199.184 159.116 198.908 159.478C198.683 159.776 198.455 160.073 198.224 160.369C198.177 160.433 198.127 160.495 198.075 160.56V160.562C198.013 160.644 197.951 160.724 197.884 160.805V160.808C196.904 162.061 195.895 163.289 194.856 164.493H194.853C194.799 164.56 194.742 164.624 194.685 164.689C194.63 164.753 194.571 164.818 194.514 164.885H194.511C194.424 164.986 194.335 165.088 194.246 165.19C194.159 165.292 194.067 165.393 193.976 165.495V165.498C188.559 171.612 182.412 177.037 175.672 181.651C174.775 182.269 173.865 182.87 172.944 183.455C172.716 183.601 172.488 183.745 172.257 183.889C172.188 183.936 172.118 183.978 172.049 184.02C171.927 184.097 171.803 184.174 171.679 184.251C171.558 184.326 171.434 184.403 171.31 184.477C170.816 184.78 170.318 185.077 169.819 185.37C169.695 185.445 169.569 185.517 169.442 185.591C169.318 185.663 169.192 185.735 169.065 185.807C169.064 185.81 169.061 185.812 169.059 185.813C169.056 185.815 169.053 185.816 169.05 185.817L169.045 185.819L169.041 185.824H169.038C168.413 186.184 167.786 186.539 167.151 186.881C166.015 187.502 164.867 188.1 163.708 188.675C163.421 188.819 163.13 188.961 162.84 189.102C162.6 189.219 162.357 189.335 162.116 189.449C162.049 189.482 161.985 189.514 161.918 189.544C161.717 189.638 161.516 189.732 161.315 189.824C161.097 189.928 160.876 190.028 160.658 190.127C160.412 190.239 160.169 190.348 159.924 190.457C159.001 190.869 158.069 191.266 157.134 191.648C153.793 193.016 150.38 194.198 146.908 195.186C146.747 195.233 146.583 195.281 146.419 195.325C144.934 195.742 143.438 196.123 141.931 196.469C139.299 197.075 136.644 197.572 133.964 197.96C133.959 197.96 133.952 197.963 133.947 197.963C133.627 198.01 133.305 198.055 132.985 198.099C132.957 198.104 132.928 198.109 132.898 198.112C132.895 198.114 132.893 198.114 132.888 198.112C132.888 198.112 132.888 198.114 132.886 198.112C132.531 198.159 132.176 198.206 131.819 198.251C131.794 198.256 131.77 198.258 131.745 198.261C131.412 198.3 131.078 198.34 130.743 198.377C130.383 198.417 130.024 198.454 129.661 198.491C129.386 198.519 129.111 198.546 128.836 198.571C128.811 198.576 128.786 198.578 128.761 198.578C128.511 198.601 128.26 198.623 128.01 198.643C128 198.643 127.987 198.645 127.977 198.645C127.759 198.665 127.541 198.68 127.323 198.697C124.756 198.901 122.164 199.002 119.548 199C116.708 199 113.897 198.882 111.115 198.645C111.105 198.645 111.095 198.643 111.085 198.643C110.493 198.593 109.901 198.538 109.31 198.479C109.153 198.464 109 198.447 108.843 198.432C108.814 198.429 108.784 198.427 108.754 198.422C108.707 198.417 108.66 198.412 108.61 198.407C108.585 198.404 108.558 198.402 108.533 198.397C108.328 198.375 108.122 198.352 107.913 198.328C107.683 198.3 107.45 198.273 107.219 198.243C106.988 198.216 106.755 198.186 106.525 198.154C106.475 198.149 106.423 198.144 106.373 198.134C106.205 198.114 106.036 198.092 105.87 198.067C105.788 198.057 105.709 198.045 105.629 198.032C105.468 198.01 105.309 197.988 105.148 197.963C105.143 197.963 105.136 197.96 105.131 197.96C100.066 197.229 95.0667 196.101 90.1781 194.588H90.1756C89.9103 194.506 89.6449 194.422 89.3795 194.338C89.3002 194.315 89.2208 194.29 89.1414 194.263C88.452 194.042 87.7666 193.814 87.0854 193.578C86.1455 193.256 85.2121 192.918 84.2854 192.566C84.0324 192.469 83.7819 192.372 83.529 192.276C83.0255 192.077 82.5245 191.879 82.026 191.675C81.1753 191.328 80.3304 190.97 79.4913 190.601H79.4889V190.598C78.7052 190.253 77.9272 189.898 77.1551 189.531C77.1323 189.525 77.1106 189.515 77.0906 189.502C77.0881 189.502 77.0881 189.499 77.0856 189.499C76.9145 189.42 76.7434 189.338 76.5723 189.256L76.5673 189.253C72.3133 187.213 68.2114 184.87 64.2933 182.241C63.0358 181.4 61.7999 180.531 60.5855 179.633C59.6059 178.911 58.6403 178.171 57.6887 177.413C52.949 173.644 48.5625 169.45 44.5839 164.885H44.5814V164.882C44.3011 164.562 44.0283 164.244 43.7505 163.922V163.919C43.7109 163.875 43.6737 163.83 43.6365 163.785C43.4604 163.579 43.2892 163.376 43.1181 163.168V163.165C42.885 162.89 42.6568 162.613 42.4336 162.336C42.384 162.277 42.3369 162.22 42.2898 162.16H42.2873V162.158C42.1038 161.934 41.9227 161.709 41.7441 161.483C41.6524 161.371 41.5631 161.257 41.4738 161.143H41.4713V161.14C40.9307 160.458 40.4007 159.769 39.8816 159.073V159.071C39.7377 158.88 39.5964 158.689 39.4575 158.495H39.455C38.7903 157.597 38.143 156.688 37.5131 155.768V155.766C37.275 155.421 37.0394 155.074 36.8063 154.724C36.5731 154.374 36.3425 154.023 36.1143 153.672H36.1118C35.8762 153.309 35.6431 152.945 35.4124 152.58C35.4 152.56 35.3876 152.543 35.3777 152.525C35.1495 152.166 34.9247 151.803 34.7031 151.439C34.5246 151.148 34.3485 150.86 34.1774 150.57C34.0583 150.374 33.9417 150.18 33.8277 149.982C33.7855 149.915 33.7483 149.848 33.7111 149.783C33.4482 149.334 33.1903 148.885 32.9323 148.434C32.6322 147.903 32.3346 147.367 32.0445 146.831C31.9254 146.61 31.8064 146.387 31.6898 146.163C31.6476 146.091 31.6104 146.019 31.5732 145.945C31.4344 145.682 31.2955 145.419 31.1591 145.153C31.0227 144.89 30.8863 144.625 30.7523 144.359C30.6184 144.094 30.4845 143.828 30.353 143.56C30.2538 143.359 30.1546 143.156 30.0579 142.955C30.0478 142.938 30.0387 142.921 30.0306 142.903C29.986 142.809 29.9389 142.717 29.8967 142.622C29.8868 142.608 29.8793 142.592 29.8744 142.575C29.7727 142.367 29.6735 142.161 29.5768 141.953C29.4478 141.685 29.3238 141.414 29.1998 141.144C29.1105 140.955 29.0262 140.764 28.9394 140.573C28.8154 140.305 28.6938 140.034 28.5748 139.762C28.4483 139.481 28.3268 139.198 28.2052 138.915C28.173 138.843 28.1432 138.774 28.1135 138.702C28.0564 138.573 28.0019 138.444 27.9473 138.315C27.801 137.973 27.6571 137.625 27.5158 137.28C27.3546 136.891 27.1975 136.5 27.0446 136.109C26.8982 135.744 26.756 135.379 26.618 135.012L26.5659 134.878V134.876C24.4109 129.21 22.7804 123.357 21.695 117.393V117.39C21.076 113.985 20.6356 110.549 20.3756 107.098C20.3607 106.909 20.3483 106.721 20.3359 106.532C20.1722 104.197 20.092 101.853 20.0953 99.5C20.0953 98.4554 20.1118 97.4157 20.1449 96.381C20.788 74.7488 28.4955 53.9227 42.0889 37.0879C42.6866 36.346 43.2951 35.6132 43.9143 34.8895C62.1529 13.5355 89.2704 0 119.548 0C154.946 0 186.027 18.503 203.648 46.3705C204.566 47.8146 205.444 49.2852 206.282 50.7822C214.646 65.6538 219.027 82.4356 219 99.5Z" fill="#F2F2F2"/>
<path d="M167.706 177.599C167.349 178.586 166.993 179.574 166.637 180.562C166.57 180.75 166.501 180.936 166.434 181.125C165.526 183.641 164.618 186.158 163.708 188.675C163.421 188.819 163.131 188.961 162.84 189.102C162.6 189.219 162.357 189.335 162.116 189.45C162.049 189.482 161.985 189.514 161.918 189.544C161.717 189.638 161.516 189.732 161.315 189.824C161.097 189.928 160.876 190.028 160.658 190.127C160.412 190.239 160.169 190.348 159.924 190.457C159.796 190.124 159.723 189.773 159.708 189.417C159.697 188.858 159.763 188.301 159.904 187.76C160.12 186.867 160.462 185.991 160.688 185.095C160.7 185.053 160.71 185.008 160.72 184.966C161.223 182.827 160.991 180.581 160.06 178.591C159.5 177.405 158.696 176.326 158.346 175.06C158.043 173.872 158.177 172.614 158.726 171.517C158.929 171.092 159.185 170.693 159.487 170.331C159.559 170.239 159.636 170.152 159.715 170.066C160.445 169.264 161.414 168.72 162.478 168.515C164.514 168.153 166.642 169.237 167.781 170.939C168.247 171.623 168.532 172.415 168.607 173.239C168.731 174.73 168.215 176.192 167.706 177.599Z" fill="#E4E4E4"/>
<path d="M162.084 187.678C161.618 186.817 160.836 186.062 160.688 185.095C160.204 181.988 159.038 179.76 157.106 178.497C156.546 178.132 156.456 177.326 156.112 176.745C155.958 176.485 155.802 176.224 155.64 175.968C155.38 175.544 155.109 175.128 154.827 174.72C154.293 173.932 153.703 173.183 153.064 172.477C152.798 172.182 152.518 171.897 152.228 171.626L152.225 171.624C152.044 171.45 151.861 171.284 151.67 171.123C151.595 171.058 151.519 170.993 151.439 170.929L151.434 170.924C151.099 170.633 150.748 170.362 150.383 170.11C149.542 169.542 148.592 169.147 147.617 169.463C147.234 169.594 146.865 169.763 146.516 169.969C146.338 170.07 146.162 170.177 145.985 170.284C145.866 170.356 145.747 170.428 145.628 170.502C145.532 170.559 145.435 170.616 145.338 170.671C144.589 171.103 143.837 171.526 143.081 171.941C142.972 172.003 142.863 172.063 142.751 172.122H142.749C142.672 172.167 142.593 172.209 142.513 172.252C142.362 172.336 142.208 172.42 142.057 172.502C141.603 172.748 141.148 172.991 140.693 173.232C140.46 173.356 140.224 173.475 139.989 173.594C139.879 173.648 139.77 173.703 139.664 173.76H139.661C139.621 173.78 139.584 173.8 139.545 173.82C139.222 173.986 138.905 174.157 138.597 174.343C137.705 174.881 136.93 175.592 136.318 176.435C136.199 176.599 136.085 176.767 135.981 176.941C135.844 177.166 135.72 177.398 135.609 177.636C135.532 177.797 135.46 177.958 135.395 178.122V178.125C134.786 179.693 134.7 181.417 135.152 183.038V183.04C135.182 183.152 135.214 183.261 135.252 183.37C135.311 183.554 135.378 183.737 135.452 183.916C135.535 184.115 135.627 184.31 135.73 184.499V184.502C136.282 185.444 136.971 186.298 137.774 187.038L137.799 187.062C137.898 187.159 137.999 187.258 138.099 187.355C138.153 187.407 138.21 187.459 138.27 187.509C139.128 188.246 140.514 188.804 141.298 189.561C141.717 189.965 141.963 190.425 141.866 190.998C141.608 192.519 141.665 193.504 141.928 194.137C142.642 195.864 144.884 194.985 146.419 195.325C146.583 195.28 146.747 195.233 146.908 195.186C150.38 194.197 153.793 193.016 157.134 191.648C158.069 191.266 159.001 190.869 159.924 190.457C160.169 190.348 160.412 190.238 160.658 190.127C160.876 190.028 161.097 189.928 161.315 189.824C161.516 189.732 161.717 189.638 161.918 189.544C161.985 189.514 162.049 189.482 162.116 189.449C162.357 189.335 162.6 189.219 162.84 189.102C162.595 188.623 162.339 188.149 162.084 187.678Z" fill="#E4E4E4"/>
<path d="M143.938 163.588C144.46 162.013 143.743 160.974 141.898 160.422C141.835 160.365 141.759 160.325 141.676 160.305C141.594 160.285 141.507 160.286 141.425 160.308C141.343 160.33 141.268 160.372 141.206 160.431C141.145 160.49 141.099 160.563 141.073 160.644L139.462 165.418C137.778 164.987 136.542 165.282 136.274 166.949C136.939 165.251 136.313 164.186 134.443 163.732C134.382 163.671 134.307 163.627 134.224 163.603C134.142 163.58 134.055 163.577 133.971 163.596C133.888 163.615 133.81 163.655 133.746 163.712C133.682 163.769 133.633 163.841 133.604 163.922L132.545 168.222C131.255 170.166 130.622 172.472 130.738 174.803C130.854 177.133 131.713 179.365 133.189 181.171C134.665 182.978 136.681 184.263 138.941 184.84C141.201 185.416 143.586 185.253 145.747 184.374C147.907 183.495 149.729 181.947 150.946 179.957C152.163 177.966 152.711 175.638 152.508 173.314C152.306 170.989 151.365 168.791 149.823 167.04C148.28 165.29 146.218 164.08 143.938 163.588Z" fill="#E4E4E4"/>
<path d="M142.913 177.194C142.696 177.311 142.441 177.336 142.204 177.265C141.968 177.194 141.769 177.031 141.652 176.814C141.636 176.783 141.632 176.746 141.642 176.713C141.653 176.679 141.676 176.651 141.707 176.634C141.738 176.617 141.774 176.614 141.808 176.624C141.842 176.634 141.87 176.657 141.887 176.688C141.97 176.843 142.112 176.959 142.281 177.01C142.45 177.061 142.632 177.042 142.787 176.959C142.942 176.875 143.058 176.734 143.109 176.565C143.16 176.396 143.142 176.214 143.059 176.059C143.042 176.028 143.039 175.991 143.049 175.957C143.059 175.924 143.082 175.896 143.114 175.879C143.145 175.862 143.181 175.859 143.215 175.869C143.248 175.879 143.277 175.902 143.293 175.933C143.41 176.151 143.435 176.406 143.364 176.642C143.293 176.879 143.131 177.077 142.913 177.194Z" fill="#FEFBFC"/>
<path d="M141.939 175.237C142.457 174.959 142.79 174.572 142.683 174.372C142.576 174.173 142.069 174.237 141.552 174.515C141.034 174.793 140.7 175.18 140.807 175.379C140.914 175.579 141.421 175.515 141.939 175.237Z" fill="#FEFBFC"/>
<path d="M136.434 175.574C136.504 175.235 136.648 174.914 136.855 174.636C137.062 174.358 137.328 174.129 137.634 173.965C137.939 173.801 138.277 173.706 138.623 173.687C138.969 173.668 139.316 173.725 139.637 173.854C139.799 173.359 139.811 172.827 139.67 172.326C139.53 171.824 139.244 171.375 138.849 171.036C138.454 170.697 137.967 170.483 137.45 170.42C136.933 170.358 136.409 170.451 135.944 170.686C135.48 170.922 135.096 171.29 134.841 171.744C134.585 172.198 134.47 172.718 134.51 173.237C134.55 173.757 134.743 174.253 135.064 174.662C135.386 175.072 135.822 175.377 136.317 175.539C136.355 175.552 136.394 175.564 136.434 175.574Z" fill="#FEFBFC"/>
<path d="M137.22 174.618C137.72 174.618 138.126 174.213 138.126 173.712C138.126 173.212 137.72 172.806 137.22 172.806C136.72 172.806 136.314 173.212 136.314 173.712C136.314 174.213 136.72 174.618 137.22 174.618Z" fill="#404E5C"/>
<path d="M142.702 172.314C142.772 171.974 142.916 171.654 143.123 171.376C143.331 171.098 143.597 170.868 143.902 170.704C144.208 170.54 144.546 170.445 144.892 170.426C145.238 170.407 145.584 170.464 145.906 170.594C146.068 170.099 146.079 169.567 145.939 169.065C145.799 168.563 145.513 168.115 145.117 167.776C144.722 167.436 144.235 167.222 143.718 167.16C143.201 167.098 142.677 167.19 142.213 167.426C141.749 167.661 141.364 168.03 141.109 168.484C140.854 168.938 140.739 169.457 140.779 169.977C140.819 170.496 141.011 170.992 141.333 171.402C141.655 171.811 142.09 172.117 142.585 172.279C142.624 172.291 142.663 172.303 142.702 172.314Z" fill="#FEFBFC"/>
<path d="M143.821 171.307C144.322 171.307 144.727 170.901 144.727 170.401C144.727 169.901 144.322 169.495 143.821 169.495C143.321 169.495 142.916 169.901 142.916 170.401C142.916 170.901 143.321 171.307 143.821 171.307Z" fill="#404E5C"/>
<path d="M148.366 170.338L145.274 173.491L145.586 173.797L148.678 170.645L148.366 170.338Z" fill="#FEFBFC"/>
<path d="M149.349 171.864L145.613 174.217L145.846 174.587L149.582 172.234L149.349 171.864Z" fill="#FEFBFC"/>
<path d="M138.64 177.052L134.305 177.887L134.388 178.317L138.723 177.482L138.64 177.052Z" fill="#FEFBFC"/>
<path d="M139.058 177.736L135.032 179.55L135.212 179.948L139.237 178.135L139.058 177.736Z" fill="#FEFBFC"/>
<path d="M11.3968 110.44C2.91723 102.805 -2.21724 90.6627 0.938151 79.6946C8.05904 89.8582 18.5437 97.1743 30.5371 100.348C35.1669 101.556 40.442 102.416 43.2587 106.286C45.0114 108.693 45.4184 111.875 45.0035 114.824C44.5886 117.774 43.429 120.559 42.2799 123.307L42.3407 124.048C31.1427 121.868 19.8764 118.075 11.3968 110.44Z" fill="#E6E6E6"/>
<path d="M1.17513 79.7292C3.33028 88.8249 8.40382 97.2906 15.5228 103.366C17.062 104.68 18.7375 105.878 20.6171 106.653C22.4549 107.394 24.4576 107.629 26.4171 107.334C28.2496 107.096 30.0965 106.64 31.9551 106.851C33.9141 107.074 35.5507 108.172 36.6941 109.754C38.093 111.688 38.7136 114.011 39.2416 116.303C39.8279 118.848 40.3965 121.501 42.0759 123.581C42.2794 123.833 41.8767 124.134 41.6735 123.882C38.7515 120.263 39.1512 115.254 37.035 111.255C36.0476 109.389 34.4921 107.81 32.3497 107.418C30.4763 107.075 28.5713 107.544 26.7179 107.801C24.7718 108.072 22.889 108.006 21.022 107.347C19.1121 106.672 17.3862 105.536 15.8202 104.268C12.2907 101.365 9.23935 97.9252 6.77789 94.0741C3.94429 89.6945 1.88039 84.8622 0.675502 79.7863C0.601054 79.4721 1.10117 79.417 1.17513 79.7292Z" fill="#FEFBFC"/>
<path d="M13.1047 101.513C11.9064 102.572 10.3709 103.171 8.77242 103.202C7.17392 103.232 5.61649 102.694 4.37828 101.682C4.12844 101.476 4.43606 101.078 4.68623 101.284C5.83751 102.229 7.28831 102.73 8.77678 102.698C10.2652 102.667 11.6933 102.103 12.8033 101.111C13.0447 100.895 13.3447 101.299 13.1047 101.513Z" fill="#FEFBFC"/>
<path d="M25.5038 107.578C25.735 104.316 24.729 101.087 22.6863 98.5345C22.4837 98.2817 22.8864 97.9805 23.0888 98.2329C25.2095 100.893 26.2496 104.256 26.0015 107.649C25.9776 107.973 25.4801 107.899 25.5038 107.578Z" fill="#FEFBFC"/>
<path d="M4.60167 89.5843C5.15064 89.2713 5.61329 88.8267 5.94807 88.2905C6.28285 87.7543 6.47928 87.1433 6.51971 86.5124C6.53947 86.1888 7.03704 86.2624 7.01741 86.5839C6.96949 87.2807 6.75173 87.9552 6.38316 88.5485C6.01459 89.1417 5.50643 89.6356 4.90306 89.987C4.84896 90.0249 4.78247 90.0408 4.7171 90.0314C4.65174 90.022 4.5924 89.988 4.55114 89.9364C4.5115 89.8829 4.49457 89.8159 4.50403 89.75C4.51349 89.6841 4.54858 89.6245 4.60167 89.5843Z" fill="#FEFBFC"/>
<path d="M36.3508 64.2639C36.3442 64.4663 36.3376 64.6687 36.3344 64.8737C36.2598 67.5954 36.4063 70.3186 36.7726 73.0165C36.7976 73.2255 36.8261 73.437 36.857 73.6449C37.8086 80.1353 39.9564 86.3926 43.1911 92.0986C44.4804 94.3679 45.9403 96.5359 47.5583 98.5836C49.7931 101.412 52.4409 104.3 53.5779 107.604C53.7004 107.947 53.8015 108.298 53.8807 108.654L43.2397 123.916C43.1981 123.938 43.1598 123.963 43.1181 123.986L42.7211 124.615C42.6303 124.515 42.5382 124.41 42.4474 124.31C42.3945 124.252 42.3439 124.191 42.291 124.134C42.2565 124.094 42.2221 124.054 42.1886 124.021C42.1771 124.008 42.1657 123.994 42.1576 123.984C42.1242 123.95 42.0967 123.915 42.0668 123.884C41.5506 123.296 41.0377 122.703 40.5279 122.106C40.5245 122.104 40.5245 122.104 40.5234 122.098C36.6512 117.537 33.1256 112.613 30.4592 107.309C30.3791 107.15 30.2953 106.988 30.22 106.821C29.0313 104.424 28.0405 101.934 27.2574 99.3755C26.8331 97.9731 26.48 96.5501 26.1995 95.112C25.4819 91.3948 25.3531 87.5878 25.818 83.8305C26.7458 76.3406 30.0576 69.2309 35.9009 64.6124C36.0504 64.4944 36.1977 64.3795 36.3508 64.2639Z" fill="#E6E6E6"/>
<path d="M36.5204 64.4334C32.7675 72.994 31.7239 82.8095 33.7519 91.9487C34.1904 93.9246 34.807 95.8908 35.8414 97.6416C36.8628 99.3404 38.3203 100.735 40.0624 101.679C41.6691 102.593 43.4182 103.341 44.775 104.629C46.205 105.987 46.8509 107.85 46.8122 109.801C46.7648 112.189 45.8628 114.417 44.905 116.565C43.8415 118.95 42.6992 121.411 42.7885 124.083C42.7993 124.407 42.2965 124.405 42.2857 124.082C42.1304 119.432 45.464 115.673 46.1808 111.206C46.5152 109.121 46.2238 106.923 44.749 105.319C43.4595 103.917 41.6564 103.144 40.0216 102.233C38.3051 101.277 36.8411 100.091 35.7474 98.4392C34.6286 96.7499 33.9338 94.8037 33.4468 92.8477C32.3755 88.404 32.0092 83.8194 32.3613 79.2619C32.7344 74.0582 33.9945 68.9567 36.087 64.1781C36.2167 63.8824 36.6491 64.1396 36.5204 64.4334Z" fill="#FEFBFC"/>
<path d="M32.9361 89.0128C31.3421 89.1365 29.756 88.6894 28.4611 87.7512C27.1662 86.8129 26.2468 85.4448 25.8671 83.891C25.7914 83.5763 26.2766 83.4438 26.3524 83.7588C26.7033 85.2064 27.5599 86.4808 28.7674 87.352C29.975 88.2232 31.4541 88.6338 32.9377 88.5097C33.2602 88.4832 33.2567 88.9864 32.9361 89.0128Z" fill="#FEFBFC"/>
<path d="M39.187 101.323C41.3344 98.8583 42.4743 95.6742 42.3794 92.4057C42.3697 92.0819 42.8725 92.0839 42.8822 92.4074C42.9746 95.8088 41.7816 99.12 39.5413 101.68C39.3276 101.924 38.9744 101.566 39.187 101.323Z" fill="#FEFBFC"/>
<path d="M33.3257 74.3664C33.9524 74.4471 34.5894 74.3708 35.1794 74.1443C35.7693 73.9178 36.2938 73.5483 36.7058 73.0689C36.9163 72.8225 37.2693 73.181 37.0602 73.4258C36.6025 73.9533 36.0228 74.3607 35.3715 74.6124C34.7202 74.864 34.0173 74.9523 33.3241 74.8694C33.2581 74.8671 33.1954 74.8397 33.1489 74.7928C33.1023 74.746 33.0754 74.6831 33.0735 74.6171C33.074 74.5505 33.1008 74.4868 33.1481 74.4398C33.1953 74.3929 33.2591 74.3665 33.3257 74.3664Z" fill="#FEFBFC"/>
<path d="M133.559 65.2819C135.037 57.1023 132.58 47.8208 125.874 42.9141C126.305 51.943 123.53 60.8336 118.04 68.0127C115.913 70.7737 113.26 73.623 113.363 77.1076C113.427 79.2758 114.611 81.2891 116.165 82.802C117.719 84.3149 119.628 85.4011 121.514 86.4703L121.81 86.9241C127.285 80.6722 132.08 73.4615 133.559 65.2819Z" fill="#E6E6E6"/>
<path d="M125.753 43.0395C128.595 49.3047 129.392 56.3064 128.03 63.0503C127.763 64.5073 127.267 65.9131 126.562 67.2158C125.835 68.4626 124.786 69.4916 123.527 70.1961C122.365 70.8766 121.099 71.438 120.123 72.3891C119.631 72.8833 119.248 73.4761 119.001 74.1285C118.754 74.7809 118.647 75.4782 118.689 76.1747C118.746 77.9129 119.424 79.5268 120.141 81.0821C120.938 82.8089 121.794 84.5899 121.754 86.5368C121.749 86.7727 122.115 86.7664 122.12 86.5308C122.189 83.1436 119.726 80.4379 119.162 77.1914C118.898 75.6765 119.09 74.073 120.148 72.8914C121.074 71.8581 122.38 71.278 123.562 70.5992C124.801 69.93 125.857 68.9675 126.638 67.7957C127.407 66.5331 127.956 65.1488 128.261 63.7021C128.999 60.456 129.222 57.1139 128.922 53.7984C128.601 50.0125 127.635 46.3095 126.066 42.8495C125.969 42.6354 125.657 42.8268 125.753 43.0395Z" fill="#FEFBFC"/>
<path d="M128.596 60.9046C129.758 60.9796 130.909 60.639 131.843 59.9435C132.777 59.248 133.434 58.2429 133.695 57.1078C133.748 56.878 133.393 56.786 133.341 57.0162C133.099 58.0737 132.487 59.0098 131.616 59.6557C130.745 60.3016 129.672 60.6146 128.59 60.5383C128.355 60.5221 128.363 60.8885 128.596 60.9046Z" fill="#FEFBFC"/>
<path d="M124.161 69.9287C122.574 68.1541 121.714 65.8462 121.752 63.4651C121.756 63.2292 121.39 63.2355 121.386 63.4711C121.351 65.9489 122.251 68.3489 123.906 70.192C124.064 70.3675 124.318 70.1034 124.161 69.9287Z" fill="#FEFBFC"/>
<path d="M128.174 50.2425C127.718 50.3072 127.254 50.2577 126.822 50.0984C126.39 49.9391 126.005 49.675 125.7 49.3298C125.544 49.1523 125.291 49.4167 125.445 49.593C125.784 49.9728 126.21 50.264 126.686 50.4411C127.163 50.6181 127.676 50.6757 128.18 50.6088C128.228 50.6065 128.273 50.586 128.307 50.5514C128.34 50.5168 128.359 50.4708 128.36 50.4227C128.359 50.3742 128.339 50.3281 128.304 50.2943C128.269 50.2606 128.222 50.242 128.174 50.2425Z" fill="#FEFBFC"/>
<path d="M98.6074 49.832C98.7014 49.9456 98.7955 50.0592 98.8887 50.1757C100.145 51.7094 101.275 53.3426 102.266 55.0593C102.345 55.1908 102.423 55.3253 102.498 55.4588C104.843 59.6201 106.396 64.181 107.078 68.9095C107.347 70.7914 107.473 72.691 107.454 74.5919C107.428 77.2172 107.192 80.0616 108.01 82.4712C108.092 82.7236 108.191 82.9706 108.304 83.2108L121.234 87.2493C121.268 87.2437 121.301 87.2412 121.335 87.2356L121.844 87.4205C121.852 87.3225 121.858 87.2207 121.865 87.1227C121.87 87.0659 121.872 87.0082 121.877 86.9514C121.879 86.9132 121.881 86.875 121.885 86.8407C121.886 86.828 121.887 86.8153 121.887 86.8055C121.891 86.7712 121.891 86.7389 121.895 86.7075C121.93 86.1387 121.961 85.5686 121.988 84.9973C121.989 84.9944 121.989 84.9943 121.987 84.9905C122.183 80.6369 122.018 76.2286 121.189 71.9856C121.164 71.858 121.14 71.7274 121.109 71.5979C120.725 69.6874 120.185 67.8116 119.495 65.9891C119.114 64.9923 118.683 64.0155 118.204 63.0624C116.96 60.6021 115.337 58.3528 113.394 56.3971C109.521 52.4989 104.445 49.8834 99.0218 49.8318C98.8831 49.8306 98.7471 49.8303 98.6074 49.832Z" fill="#E6E6E6"/>
<path d="M98.5853 50.0051C104.625 53.2955 109.474 58.4062 112.445 64.6111C113.109 65.9356 113.559 67.3563 113.78 68.8211C113.949 70.2549 113.732 71.7079 113.15 73.0292C112.632 74.272 111.959 75.4833 111.752 76.8304C111.656 77.5216 111.708 78.2251 111.903 78.8949C112.098 79.5648 112.433 80.1857 112.885 80.7171C113.976 82.0706 115.489 82.9508 116.998 83.7602C118.673 84.6589 120.428 85.5658 121.568 87.1442C121.706 87.3354 121.995 87.1098 121.857 86.9189C119.873 84.1728 116.278 83.4962 113.874 81.2439C112.752 80.193 111.94 78.7974 112.074 77.2162C112.192 75.8335 112.885 74.5838 113.42 73.33C114.007 72.0494 114.271 70.6446 114.19 69.2383C114.044 67.767 113.649 66.3313 113.022 64.9926C111.657 61.9562 109.825 59.1533 107.59 56.6865C105.056 53.857 102.056 51.4822 98.7209 49.6648C98.5144 49.5524 98.3802 49.8934 98.5853 50.0051Z" fill="#FEFBFC"/>
<path d="M111.606 62.557C112.579 61.9169 113.293 60.9518 113.62 59.8338C113.947 58.7158 113.867 57.5179 113.393 56.4539C113.296 56.2389 112.958 56.3791 113.054 56.5943C113.498 57.5843 113.573 58.7002 113.266 59.7407C112.959 60.7811 112.29 61.6775 111.381 62.2681C111.183 62.3967 111.41 62.6848 111.606 62.557Z" fill="#FEFBFC"/>
<path d="M113.495 72.4338C111.16 71.9729 109.084 70.6483 107.682 68.7242C107.543 68.5335 107.255 68.759 107.393 68.9495C108.856 70.9491 111.019 72.3231 113.45 72.7974C113.682 72.8424 113.726 72.4786 113.495 72.4338Z" fill="#FEFBFC"/>
<path d="M104.853 54.2984C104.528 54.6245 104.127 54.8648 103.686 54.9977C103.246 55.1305 102.779 55.1518 102.328 55.0597C102.097 55.0117 102.054 55.3756 102.283 55.4232C102.782 55.5228 103.297 55.4986 103.784 55.3529C104.271 55.2071 104.716 54.9443 105.078 54.5872C105.115 54.5565 105.139 54.5127 105.144 54.465C105.15 54.4172 105.138 54.369 105.109 54.3302C105.079 54.2921 105.036 54.2674 104.988 54.2614C104.939 54.2555 104.891 54.2687 104.853 54.2984Z" fill="#FEFBFC"/>
<path d="M32.5575 93.7974C34.3476 93.7974 36.0644 94.5088 37.3301 95.7752C38.5959 97.0416 39.307 98.7592 39.307 100.55C39.3068 102.117 38.7623 103.634 37.7668 104.843C36.7713 106.052 35.3867 106.878 33.85 107.178V118.222H29.5417V93.7974H32.5575Z" fill="#404E5C"/>
<path d="M197.885 158.494V160.807C196.905 162.06 195.896 163.288 194.857 164.492C194.745 164.623 194.631 164.752 194.515 164.884C194.338 165.09 194.157 165.293 193.976 165.497V158.494H197.885Z" fill="#CACACA"/>
<path d="M186.417 153.671C185.553 153.672 184.725 154.016 184.114 154.627C183.503 155.238 183.159 156.067 183.158 156.931V161.623C183.159 162.488 183.503 163.316 184.114 163.928C184.725 164.539 185.553 164.883 186.417 164.884H194.514C194.631 164.752 194.745 164.623 194.857 164.492C195.896 163.288 196.905 162.06 197.885 160.807C197.949 160.725 198.014 160.643 198.076 160.561C198.636 159.844 199.187 159.115 199.728 158.38C200.149 157.805 200.568 157.224 200.978 156.638C200.98 156.636 200.982 156.636 200.982 156.633C201.667 155.661 202.334 154.673 202.984 153.671H186.417Z" fill="#404E5C"/>
<path d="M207.267 113.509C206.769 113.337 206.246 113.249 205.72 113.25H204.388C203.903 113.251 203.42 113.324 202.957 113.466C201.979 113.774 201.124 114.385 200.517 115.211C199.91 116.038 199.583 117.036 199.581 118.062V157.204C199.581 157.351 199.589 157.495 199.601 157.636C199.623 157.887 199.665 158.136 199.728 158.38C200.149 157.805 200.568 157.224 200.978 156.638C200.98 156.636 200.983 156.636 200.983 156.634C201.667 155.661 202.334 154.673 202.984 153.671C203.334 153.132 203.681 152.589 204.021 152.043C206.476 148.102 208.651 143.993 210.528 139.746V118.062C210.527 117.057 210.212 116.078 209.628 115.262C209.043 114.445 208.217 113.832 207.267 113.509Z" fill="#404E5C"/>
<path d="M43.1189 158.494V163.167C42.0029 161.832 40.924 160.467 39.8824 159.073C39.7385 158.881 39.5972 158.688 39.4558 158.494H43.1189Z" fill="#CACACA"/>
<path d="M50.6782 153.671H36.1125C36.5714 154.378 37.0385 155.077 37.5138 155.767C38.1438 156.688 38.7911 157.597 39.4557 158.494C39.5971 158.688 39.7385 158.881 39.8823 159.072C40.9264 160.467 42.0053 161.832 43.1188 163.167C43.3272 163.42 43.538 163.67 43.7513 163.921C44.0241 164.243 44.301 164.564 44.5821 164.884H50.6782C51.5419 164.883 52.3699 164.539 52.9805 163.927C53.591 163.316 53.9341 162.487 53.9346 161.623V156.931C53.9341 156.067 53.591 155.238 52.9805 154.627C52.3699 154.016 51.5419 153.672 50.6782 153.671Z" fill="#404E5C"/>
<path d="M34.9271 113.794C34.2404 113.438 33.4784 113.251 32.7049 113.25H31.3756C30.7466 113.25 30.1236 113.374 29.5428 113.615C28.6628 113.979 27.9104 114.595 27.3807 115.387C26.851 116.178 26.5677 117.109 26.5667 118.062V134.877C29.0708 141.464 32.2709 147.764 36.1126 153.671C36.5714 154.378 37.0385 155.077 37.5138 155.768V118.062C37.5132 117.182 37.2718 116.319 36.8158 115.567C36.3598 114.814 35.7066 114.201 34.9271 113.794Z" fill="#404E5C"/>
<path d="M89.1084 186.467L93.4774 185.464L91.6902 168.126L85.2419 169.607L89.1084 186.467Z" fill="#9E616A"/>
<path d="M93.083 171.424C92.9935 171.119 92.9329 170.806 92.9019 170.489C92.8657 170.115 92.7926 169.745 92.6837 169.385C92.5595 169.057 92.406 168.742 92.2249 168.442C92.1381 168.283 92.0463 168.124 91.9645 167.963C91.8821 167.802 91.8108 167.635 91.7512 167.464C89.1942 159.909 85.6253 149.641 83.1502 143.631C81.6943 140.096 72.7412 138.919 64.2939 138.619C63.2647 138.582 62.2429 138.557 61.2434 138.545C60.8986 138.54 60.5564 138.535 60.2166 138.532C59.3486 138.527 58.5029 138.527 57.6894 138.537C57.5827 138.537 57.4761 138.537 57.3695 138.54C56.7767 138.545 56.2022 138.553 55.6458 138.565C51.8215 138.639 49.0115 138.813 48.5105 138.845L44.0488 136.039L43.1783 135.49L43.0865 136.039L42.3847 140.222L41.1868 147.361L44.1902 148.204L46.1395 148.75L57.6894 151.991L60.1447 152.681L60.1596 152.686L64.2939 152.678L75.5982 152.658L76.1439 154.105C75.9479 154.409 75.819 154.752 75.7657 155.11C75.7124 155.468 75.7359 155.834 75.8347 156.182C75.9335 156.53 76.1052 156.854 76.3386 157.13C76.5719 157.407 76.8615 157.631 77.188 157.787L77.6121 157.988L82.7781 171.665C82.794 172.902 83.1801 174.106 83.8868 175.121C83.9736 175.248 84.0678 175.372 84.167 175.494L84.2811 175.63L86.2677 179.518L87.4507 179.245L92.4853 178.092L92.5101 178.042C92.5126 178.035 92.577 177.898 92.6713 177.66V177.652C93.0656 176.667 93.9386 173.975 93.083 171.424Z" fill="#35404B"/>
<path d="M105.357 187.62C105.169 186.786 104.818 185.998 104.324 185.301C103.831 184.604 103.204 184.011 102.48 183.558C101.757 183.104 100.95 182.798 100.108 182.657C99.2658 182.516 98.4039 182.543 97.5721 182.737L94.0826 181.161L93.1054 181.848L89.0529 184.692L88.7181 184.769L87.6318 185.017L89.1323 191.56L105.407 187.826L105.357 187.62Z" fill="#35404B"/>
<path d="M83.7702 177.531L82.2945 189.501L82.2449 189.893L82.0267 191.677C81.176 191.329 80.3278 190.969 79.4895 190.6C78.7058 190.255 77.9279 189.899 77.1558 189.533V177.533L83.7702 177.531Z" fill="#9E616A"/>
<path d="M51.7485 95.2429C56.6896 95.2429 60.6951 91.2355 60.6951 86.2921C60.6951 81.3487 56.6896 77.3413 51.7485 77.3413C46.8075 77.3413 42.802 81.3487 42.802 86.2921C42.802 91.2355 46.8075 95.2429 51.7485 95.2429Z" fill="#9E616A"/>
<path d="M84.7201 182.099C84.4721 181.759 84.2142 181.404 84.1993 181.064C84.1423 179.866 84.0828 178.68 84.0208 177.519C83.9761 176.707 83.9315 175.906 83.8868 175.122C83.8819 175.022 83.8744 174.923 83.8695 174.826C83.7926 173.529 84.177 172.159 84.5465 170.831C84.6681 170.397 84.7896 169.958 84.8987 169.519C85.1715 168.54 85.2862 167.524 85.2385 166.509C84.6036 158.472 81.7663 150.914 80.494 149.641C78.5596 147.706 69.8122 143.234 64.294 140.515C63.3144 140.031 62.4364 139.604 61.7172 139.257C61.0798 138.947 60.5664 138.701 60.2167 138.532C59.9488 138.406 59.7752 138.324 59.7157 138.294L59.686 138.279L57.6895 138.503L57.3695 138.54L55.6087 138.738L44.1531 140.024L42.3847 140.222L39.8823 140.505L37.6229 140.758L37.5386 140.766L37.5237 140.85C37.5237 140.852 37.5188 140.87 37.5138 140.902C37.1253 143.355 37.1253 145.853 37.5138 148.306C37.8065 149.971 38.3595 151.663 39.3416 153.088C39.4756 153.281 39.6145 153.467 39.7633 153.646C39.7683 153.655 39.775 153.664 39.7831 153.671C39.8153 153.71 39.8476 153.75 39.8823 153.79V153.792C41.0057 155.1 42.5136 156.018 44.1903 156.415C44.4383 156.482 44.6912 156.537 44.9516 156.581C47.7269 157.073 50.8617 157.524 53.9346 157.921C55.2069 158.085 56.4693 158.239 57.6895 158.383C60.1324 158.671 62.4141 158.914 64.294 159.107C66.9279 159.375 68.778 159.542 69.1897 159.576L73.7903 181.049C73.4293 181.66 73.2852 182.375 73.3816 183.079C73.4779 183.782 73.809 184.432 74.3211 184.923L74.698 185.287L75.1345 187.332L76.573 189.258L76.754 189.501H83.1006L83.1354 189.459C83.1577 189.429 85.3898 186.56 85.2385 183.144C85.2236 182.791 84.9781 182.456 84.7201 182.099Z" fill="#35404B"/>
<path d="M84.5468 110.133C84.0662 110.001 83.5626 109.977 83.0715 110.061C82.5805 110.145 82.1139 110.336 81.7046 110.621C81.2953 110.905 80.9533 111.276 80.7026 111.706C80.452 112.137 80.2988 112.618 80.2538 113.114L72.8203 115.439L73.1304 120.303L83.5819 116.873C84.4205 116.893 85.2374 116.605 85.8778 116.063C86.5182 115.52 86.9376 114.762 87.0566 113.931C87.1755 113.101 86.9857 112.255 86.5231 111.555C86.0606 110.855 85.3574 110.349 84.5468 110.133Z" fill="#9E616A"/>
<path d="M79.6967 118.182L74.141 120.285L73.999 120.561C73.8303 120.888 73.5989 121.179 73.3179 121.417C73.0369 121.655 72.7118 121.835 72.3612 121.947C72.0106 122.06 71.6414 122.102 71.2745 122.071C70.9077 122.04 70.5505 121.938 70.2234 121.769L57.736 126.497C57.736 126.497 52.1593 120.914 48.189 115.931L49.5421 107.604C49.8555 105.672 50.5217 103.815 51.5072 102.124C59.6497 103.91 64.3238 115.298 64.3238 115.298L78.9986 112.497L79.6967 118.182Z" fill="#BA2649"/>
<path d="M50.4771 94.7646C48.2373 95.3698 45.7681 94.5652 44.0202 93.0389C42.2723 91.5126 41.1789 89.3499 40.5489 87.1161C40.0875 85.48 39.8687 83.6639 40.5968 82.1279C41.3249 80.592 43.2845 79.5557 44.7964 80.3316C43.8637 79.2445 44.3297 77.4464 45.4189 76.5164C46.5082 75.5864 48.0039 75.3198 49.4284 75.174C51.4958 74.9625 53.6314 74.9388 55.5986 75.6089C57.5659 76.279 59.3534 77.744 59.9691 79.7299C60.5979 80.0228 61.3061 80.0988 61.9828 79.946C62.6594 79.7931 63.2662 79.4201 63.7083 78.8853C63.8222 79.4995 63.7307 80.1342 63.4478 80.6912C63.1649 81.2481 62.7065 81.6963 62.1434 81.9663L65.1576 80.9886C65.676 82.0864 64.7677 83.4451 63.6061 83.7966C62.4445 84.1482 61.1906 83.7639 60.0884 83.256C58.9861 82.7481 57.9179 82.106 56.7206 81.9079C55.5233 81.7099 54.1169 82.0948 53.5631 83.1751C53.273 83.7409 53.2579 84.4037 53.0895 85.0168C52.921 85.63 52.4944 86.2658 51.8608 86.316C51.4605 86.3477 51.0685 86.1344 50.6693 86.178C50.4243 86.2262 50.1987 86.3449 50.0201 86.5195C49.8415 86.6941 49.7177 86.917 49.6638 87.1609C49.5644 87.6504 49.5631 88.1548 49.6602 88.6447L50.4258 94.5001L50.4771 94.7646Z" fill="#35404B"/>
<path d="M61.7171 139.257L61.2434 138.545L57.7861 133.356L57.7167 133.255L58.7856 127.706L59.118 125.975L59.8446 122.205L59.6338 113.578L59.4825 107.474L59.4602 106.516L58.6939 104.179C58.3305 103.086 57.7469 102.079 56.979 101.221C56.2111 100.362 55.2754 99.6709 54.2297 99.1889L49.071 96.8267C48.464 96.5502 47.7719 96.5263 47.1472 96.7603C46.5225 96.9942 46.0163 97.4669 45.7399 98.0743C45.7168 98.125 45.6955 98.1765 45.6758 98.2287C44.969 98.3254 41.9011 98.8415 39.2994 100.861C37.4768 102.249 36.2045 104.237 35.7082 106.474C35.7033 106.491 35.7008 106.509 35.6958 106.526C35.3511 108.067 35.0932 110.499 34.927 113.794C34.8154 115.972 34.7451 118.525 34.7162 121.451C34.6699 126.329 34.9441 131.204 35.5371 136.046C35.5942 136.508 35.6537 136.967 35.7157 137.428C35.7678 137.815 36.1398 138.185 36.4994 138.54C36.8292 138.865 37.169 139.202 37.2161 139.508C37.2583 139.775 37.0872 140.056 36.8838 140.349C36.859 140.386 36.8317 140.423 36.8069 140.46C36.554 140.82 36.2935 141.195 36.3605 141.589C36.5168 142.478 36.6085 143.381 36.6953 144.254C36.7923 145.457 36.9662 146.652 37.2161 147.832C37.3029 148.195 37.4021 148.559 37.5138 148.924C37.7742 149.78 38.0891 150.634 38.3967 151.467C38.662 152.192 38.9373 152.936 39.1705 153.671C39.2151 153.807 39.2573 153.941 39.297 154.075L39.3168 154.145L39.3887 154.157H39.3937C39.4914 153.983 39.6078 153.82 39.7409 153.671C39.7469 153.661 39.7544 153.653 39.7632 153.646C39.7979 153.604 39.8376 153.559 39.8823 153.512C40.4254 152.919 41.6059 151.854 44.1902 150.06C44.7681 149.661 45.4154 149.227 46.1396 148.75C48.7958 147.011 52.506 144.746 57.6894 141.82C58.989 141.086 60.3836 140.309 61.8734 139.49L61.7171 139.257Z" fill="#BA2649"/>
<path d="M89.5364 193.841C88.934 193.235 88.2177 192.756 87.4289 192.429C86.6401 192.102 85.7945 191.935 84.9408 191.937L82.2449 189.893L81.8902 189.622L79.4895 190.6C80.3278 190.97 81.176 191.329 82.0267 191.677C84.6878 192.764 87.4052 193.735 90.1788 194.59C89.9838 194.324 89.7691 194.074 89.5364 193.841Z" fill="#35404B"/>
<path d="M149.414 186.298L146.038 184.682L150.676 170.562L155.659 172.947L149.414 186.298Z" fill="#FFB6B6"/>
<path d="M172.05 184.022C171.068 184.635 170.073 185.23 169.066 185.808V185.816L169.051 185.818L169.046 185.821L168.664 185.915L168.116 184.466L166.851 181.124L163.404 172.017L168.764 170.695L169.066 171.923L171.333 181.121L171.983 183.751L172.05 184.022Z" fill="#FFB6B6"/>
<path d="M158.38 124.927C158.862 125.71 159.63 126.273 160.521 126.496C161.412 126.72 162.355 126.586 163.149 126.124C163.308 126.027 163.46 125.918 163.601 125.796L174.276 131.925L173.812 125.633L163.747 120.778C163.199 120.227 162.484 119.874 161.714 119.774C160.944 119.674 160.163 119.832 159.493 120.223C158.725 120.684 158.173 121.431 157.956 122.3C157.739 123.169 157.876 124.088 158.337 124.856C158.351 124.88 158.366 124.904 158.38 124.927Z" fill="#FFB6B6"/>
<path d="M169.687 129.617L171.573 130.767L180.048 135.937C180.604 136.286 181.223 136.521 181.871 136.629C182.518 136.738 183.18 136.718 183.819 136.571C184.459 136.424 185.063 136.152 185.597 135.771C186.132 135.39 186.586 134.908 186.934 134.351L186.937 134.347C187.564 133.312 187.786 132.082 187.56 130.894L183.793 112.067C183.654 111.328 183.357 110.628 182.923 110.014C182.488 109.401 181.926 108.888 181.275 108.512C180.625 108.135 179.9 107.904 179.152 107.833C178.404 107.763 177.649 107.855 176.939 108.103C175.747 108.522 174.758 109.38 174.176 110.503C173.593 111.625 173.46 112.928 173.803 114.145L177.741 127.506L171.704 124.69L169.687 129.617Z" fill="#BA2649"/>
<path d="M204.435 148.18C204.432 148.172 204.427 148.145 204.42 148.103L204.413 148.075C204.395 147.986 204.375 147.887 204.353 147.778C203.847 145.264 203.197 142.781 202.406 140.341C201.938 138.847 201.317 137.406 200.554 136.039C200.529 135.994 200.501 135.949 200.474 135.905L200.382 135.756L199.611 136.039L199.581 136.049L187.855 140.349L184.465 141.592L184.358 141.632L183.781 143.989L175.673 142.939L169.066 142.083L167.169 141.838C166.346 141.73 165.511 141.788 164.711 142.007C163.911 142.226 163.162 142.602 162.509 143.113C161.827 143.642 161.257 144.301 160.833 145.053C160.408 145.804 160.137 146.633 160.036 147.49C160.011 147.678 159.996 147.87 159.989 148.058L159.416 169.439V169.467L159.681 169.998L165.224 181.124H169.066L171.333 181.121H173.176L169.344 171.422L169.431 171.291C169.791 170.738 170.018 170.108 170.095 169.453C170.171 168.797 170.094 168.132 169.87 167.511L170.301 166.261C171.197 163.678 170.772 162.437 170.237 160.869C169.756 159.594 169.473 158.252 169.398 156.892L169.309 155.122C171.559 155.517 173.654 155.956 175.673 156.398C176.348 156.544 177.016 156.692 177.677 156.842C179.559 157.261 181.377 157.666 183.158 158.003C186.764 158.69 190.219 159.11 193.768 158.849C193.837 158.844 193.907 158.839 193.976 158.832C194.839 158.762 195.707 158.651 196.585 158.494C197.079 158.405 197.575 158.303 198.076 158.184C198.215 158.15 198.356 158.115 198.495 158.08C198.881 157.978 199.252 157.829 199.601 157.636C200.098 157.359 200.56 157.024 200.978 156.638C200.98 156.636 200.983 156.636 200.983 156.633C201.667 155.661 202.334 154.673 202.984 153.671C203.334 153.132 203.681 152.589 204.021 152.043C204.517 150.681 204.705 149.306 204.435 148.18Z" fill="#35404B"/>
<path d="M204.517 144.162C204.479 144.004 204.432 143.842 204.383 143.686C203.989 142.502 203.53 141.341 203.009 140.207C202.423 138.917 201.722 137.535 200.886 136.039C200.481 135.314 200.047 134.561 199.581 133.778C199.348 133.386 199.106 132.987 198.855 132.58C198.845 132.561 198.834 132.543 198.822 132.525L198.75 132.406L187.148 133.959L182.828 134.537L182.57 136.691L182.508 137.225C182.506 137.225 182.506 137.225 182.508 137.227L182.335 138.681V138.684L182.104 140.604L182.084 140.602L175.673 139.771L169.066 138.914L165.517 138.455C164.694 138.348 163.859 138.406 163.059 138.625C162.259 138.844 161.51 139.22 160.857 139.731C160.175 140.26 159.605 140.919 159.181 141.671C158.756 142.422 158.485 143.251 158.384 144.108C158.362 144.282 158.347 144.46 158.34 144.636L154.991 152.574C152.988 157.321 151.712 162.344 151.207 167.472L148.751 175.325L149.101 175.357L154.304 175.841L155.678 175.97L158.704 171.551C159.049 171.047 159.376 170.529 159.681 169.998C160.184 169.13 160.63 168.232 161.018 167.308L167.563 151.725C168.069 151.812 168.57 151.895 169.066 151.974C171.36 152.346 173.562 152.649 175.673 152.884C182.535 153.651 188.478 153.71 193.768 153.06C195.253 152.879 196.689 152.641 198.076 152.346C198.584 152.239 199.086 152.124 199.581 152.001C199.698 151.974 199.812 151.946 199.926 151.916C200.951 151.652 201.893 151.135 202.667 150.411C203.44 149.688 204.02 148.783 204.353 147.778C204.751 146.613 204.807 145.358 204.517 144.162Z" fill="#35404B"/>
<path d="M179.846 97.2984C184.278 97.2984 187.871 93.6235 187.871 89.0904C187.871 84.5572 184.278 80.8823 179.846 80.8823C175.414 80.8823 171.821 84.5572 171.821 89.0904C171.821 93.6235 175.414 97.2984 179.846 97.2984Z" fill="#FFB6B6"/>
<path d="M198.902 132.855C198.889 132.763 198.874 132.671 198.855 132.58C198.664 131.572 198.168 130.585 197.689 129.627C197.233 128.714 196.799 127.85 196.62 126.992C196.444 126.146 196.548 125.297 196.65 124.478C196.759 123.59 196.873 122.672 196.618 121.781C195.322 117.232 193.543 112.835 191.31 108.665C190.747 106.831 189.667 105.199 188.2 103.964C186.733 102.73 184.941 101.944 183.039 101.702C183.261 101.288 183.353 100.816 183.304 100.348C183.273 100.045 183.182 99.752 183.037 99.4849C182.892 99.2179 182.695 98.9823 182.459 98.7918C182.231 98.6085 181.97 98.4719 181.689 98.3902C181.409 98.3084 181.115 98.283 180.824 98.3154L177.094 98.7348C176.496 98.8099 175.952 99.1182 175.58 99.5926C175.208 100.067 175.038 100.669 175.108 101.268C175.128 101.453 175.17 101.634 175.232 101.809C171.769 106.221 169.991 110.241 169.827 114.042V114.044C169.808 114.483 169.81 114.923 169.835 115.362C169.913 116.781 170.222 118.178 170.748 119.498C171.369 121.023 172.2 122.454 173.218 123.749C173.426 124.012 173.642 124.27 173.865 124.523C174.073 124.771 174.307 125.032 174.564 125.304L175.217 126.327L175.824 127.282L179.073 134.783L180.728 134.728L180.958 136.379L181.013 136.763L182.084 140.602L182.163 140.89L183.629 140.192L192.374 136.039L198.912 132.932L198.902 132.855Z" fill="#BA2649"/>
<path opacity="0.2" d="M170.846 119.459C171.591 121.286 172.64 122.974 173.946 124.453C174.17 124.72 174.406 124.983 174.654 125.246L175.923 127.239C180.603 123.729 184.395 109.911 184.395 109.911L179.115 108.884L170.846 119.459Z" fill="#141200"/>
<path d="M167.649 98.0652C168.111 98.8597 168.246 99.8035 168.023 100.696C167.801 101.588 167.239 102.358 166.458 102.842C166.297 102.938 166.129 103.02 165.955 103.088L166.329 115.396L161.002 112.041L161.464 100.868C161.237 100.124 161.263 99.3263 161.537 98.5989C161.811 97.8715 162.318 97.2554 162.979 96.8467C163.743 96.3843 164.659 96.2445 165.526 96.458C166.393 96.6715 167.14 97.2209 167.602 97.9853C167.618 98.0117 167.634 98.0383 167.649 98.0652Z" fill="#FFB6B6"/>
<path d="M166.798 110.75L160.939 111.584L161.191 123.722C161.205 124.588 161.441 125.436 161.875 126.185C162.31 126.934 162.928 127.559 163.673 128.002C164.582 128.537 165.64 128.762 166.688 128.643C167.736 128.524 168.716 128.067 169.482 127.342L183.314 114.032C184.287 113.108 184.87 111.846 184.941 110.506C185.013 109.166 184.569 107.849 183.7 106.827C182.849 105.819 181.632 105.19 180.318 105.08C179.004 104.969 177.699 105.385 176.691 106.237C176.652 106.27 176.613 106.304 176.575 106.339C176.438 106.461 176.308 106.59 176.185 106.727L167.052 117.238L166.798 110.75Z" fill="#BA2649"/>
<path d="M172.198 183.712L171.983 183.752L169.066 184.29L168.116 184.466L166.621 184.742L167.151 186.883C167.789 186.538 168.419 186.183 169.046 185.821L169.051 185.819L169.066 185.816V185.809C170.073 185.233 171.067 184.637 172.05 184.022C172.119 183.98 172.188 183.938 172.258 183.891L172.198 183.712Z" fill="#35404B"/>
<path d="M150.493 183.992L146.839 182.241L146.266 181.965L145.351 184.213L138.963 185.62C138.647 185.689 138.361 185.858 138.148 186.101C137.935 186.344 137.805 186.649 137.777 186.972C137.749 187.294 137.825 187.617 137.994 187.893C138.163 188.169 138.415 188.384 138.715 188.506L144.957 191.054L146.939 189.27L146.453 191.664L148.804 192.625L151.38 184.419L150.493 183.992Z" fill="#35404B"/>
<path d="M201.32 85.5304C199.956 83.9389 199.308 81.8273 198.217 80.02C197.127 78.2127 195.229 76.5952 193.224 77.0158C191.842 77.3057 190.774 78.5258 190.233 79.8861C189.693 81.2463 189.592 82.7464 189.497 84.2159C189.53 81.1959 187.542 78.2682 184.802 77.3045C182.063 76.3409 178.784 77.4158 177.063 79.842C176.312 79.1454 175.331 78.7488 174.307 78.7273C173.283 78.7058 172.287 79.0609 171.507 79.7254C169.967 81.1022 169.627 83.7227 170.759 85.4788C171.891 87.235 174.344 87.8892 176.143 86.9152L176.779 87.5007C176.421 88.7538 177.116 90.234 178.283 90.7057C179.23 91.0883 180.566 91.0246 180.92 92.0185C181.168 92.7129 180.705 93.4542 180.213 93.9878C179.721 94.5215 179.137 95.0725 179.077 95.811C178.988 96.9252 180.139 97.7057 181.185 97.9408C183.708 98.5076 186.507 97.3389 187.961 95.1116C187.989 95.0686 188.019 95.0256 188.052 94.9826C188.868 93.9389 189.462 92.7397 189.799 91.4584C190.136 90.1771 190.208 88.8406 190.012 87.5304C189.93 87.0156 190.012 86.6327 190.367 86.5108C191.9 85.9838 196.196 87.0898 197.496 88.0893C198.797 89.0889 199.838 90.4117 201.09 91.4758C202.343 92.5398 203.938 93.3606 205.529 93.0709C206.802 92.8388 207.886 91.9138 208.614 90.798C209.343 89.6822 209.762 88.3816 210.138 87.0891C207.322 88.7168 203.468 88.0355 201.32 85.5304Z" fill="#35404B"/>
<path d="M175.672 134.457V181.651C174.774 182.269 173.865 182.87 172.944 183.455V137.586C172.944 136.256 172.498 135.177 171.949 135.174H130.658C130.108 135.177 129.664 136.256 129.661 137.586V198.492C129.111 198.546 128.56 198.599 128.009 198.643C127.781 198.663 127.551 198.68 127.322 198.698C127.191 198.455 127.062 198.209 126.933 197.961V134.457C126.933 134.09 126.948 133.72 126.973 133.355C127.196 130.259 128.305 127.996 129.602 127.991H173.004C173.161 127.992 173.316 128.025 173.46 128.087C174.546 128.549 175.404 130.574 175.62 133.192C175.655 133.608 175.675 134.033 175.672 134.457Z" fill="#E4E4E4"/>
<path d="M109.421 134.457V198.303C109.384 198.363 109.347 198.42 109.309 198.479C108.377 198.385 107.448 198.277 106.524 198.154V137.586C106.524 136.256 106.051 135.177 105.468 135.174H61.6418C61.0589 135.177 60.5852 136.256 60.5852 137.586V179.634C59.6056 178.912 58.64 178.172 57.6885 177.413V134.457C57.6885 134.09 57.7034 133.72 57.7306 133.355C57.9662 130.259 59.1443 127.996 60.5232 127.991H106.586C106.752 127.991 106.916 128.024 107.07 128.087C108.223 128.549 109.136 130.574 109.366 133.192C109.404 133.608 109.421 134.033 109.421 134.457Z" fill="#E4E4E4"/>
<path d="M94.7336 113.239L97.6059 125.883L99.4411 127.894H100.765L95.3083 104.906L95.0382 108.811V108.814L94.7336 113.239Z" fill="#404E5C"/>
<path d="M104.298 128.54C104.29 128.521 104.279 128.502 104.266 128.486C104.239 128.426 104.202 128.372 104.154 128.327L103.82 127.992L102.059 126.228C101.929 126.101 101.756 126.03 101.575 126.029H101.568L100.325 126.037L99.2561 126.044L97.7631 126.054L87.5947 126.118L80.9108 126.161C80.7298 126.163 80.5568 126.236 80.4293 126.365C80.3017 126.493 80.2297 126.667 80.2288 126.848C80.2298 126.948 80.2518 127.047 80.2932 127.138L80.4222 127.414L80.6925 127.992L81.0447 128.749L81.2183 129.121C81.2737 129.239 81.3616 129.34 81.4719 129.41C81.5821 129.48 81.7101 129.518 81.8408 129.518H103.668C103.783 129.516 103.896 129.485 103.996 129.429C104.096 129.373 104.181 129.293 104.244 129.197C104.306 129.1 104.343 128.99 104.353 128.875C104.362 128.761 104.344 128.646 104.298 128.54Z" fill="#404E5C"/>
<path opacity="0.17" d="M81.0449 128.748L81.2172 129.122C81.2733 129.24 81.3615 129.34 81.4718 129.41C81.582 129.48 81.7098 129.517 81.8405 129.518H103.669C103.784 129.516 103.896 129.486 103.996 129.43C104.097 129.374 104.182 129.294 104.244 129.198C104.306 129.101 104.343 128.991 104.353 128.876C104.362 128.762 104.343 128.647 104.298 128.541C104.29 128.521 104.279 128.503 104.266 128.487L81.0449 128.748Z" fill="#141200"/>
<path opacity="0.17" d="M95.0381 108.811V108.814L99.7111 127.894H100.765L95.3082 104.906L95.0381 108.811Z" fill="#141200"/>
<path d="M102.369 55.4164L101.684 55.3246C101.496 55.3001 101.306 55.351 101.156 55.4661L100.747 55.7812L96.1906 61.4832C96.0401 61.5995 95.942 61.7709 95.9178 61.9596L95.6623 63.9L89.3033 112.308C89.2807 112.487 89.3258 112.668 89.4298 112.816L92.4258 121.079L92.5151 121.208L92.7085 121.483C92.8081 121.623 92.954 121.723 93.1202 121.766L93.5542 121.875C93.6528 121.9 93.7555 121.904 93.8556 121.886C93.9556 121.868 94.0507 121.829 94.1346 121.771C94.2188 121.715 94.2898 121.641 94.3429 121.554C94.3959 121.468 94.4298 121.371 94.4421 121.27L95.2184 115.37V115.367L95.7144 111.581L96.1335 108.387V108.385L102.989 56.2204C103.013 56.032 102.962 55.8416 102.847 55.6909C102.731 55.5402 102.56 55.4416 102.372 55.4169L102.369 55.4164Z" fill="#404E5C"/>
<path opacity="0.17" d="M100.745 55.7813L92.4253 121.08L92.5157 121.208L92.7085 121.482C92.808 121.623 92.9539 121.723 93.1203 121.766L93.5549 121.875C93.6533 121.899 93.7557 121.903 93.8555 121.885C93.9553 121.867 94.0502 121.828 94.1339 121.771C94.2177 121.714 94.2885 121.64 94.3417 121.553C94.3949 121.467 94.4293 121.37 94.4426 121.27L102.988 56.2211C103.013 56.0322 102.961 55.8412 102.845 55.6901C102.729 55.539 102.558 55.4401 102.369 55.4152L101.683 55.325C101.59 55.3124 101.495 55.3185 101.405 55.3429C101.314 55.3673 101.229 55.4095 101.155 55.4671L100.745 55.7813Z" fill="#141200"/>
<path d="M100.5 57.6487L96.0851 63.9539L90.8372 103.903L93.6823 109.55L100.5 57.6487Z" fill="#BA2649"/>
<path d="M143.51 113.239L140.638 125.883L138.803 127.894H137.479L142.936 104.906L143.206 108.811V108.814L143.51 113.239Z" fill="#404E5C"/>
<path d="M157.333 126.161L140.483 126.054L138.987 126.044L137.921 126.037L136.678 126.029H136.668C136.488 126.029 136.315 126.101 136.187 126.228L134.089 128.327C134.043 128.373 134.005 128.426 133.977 128.486C133.964 128.502 133.954 128.521 133.945 128.54C133.9 128.646 133.881 128.761 133.891 128.875C133.9 128.99 133.938 129.1 134 129.197C134.062 129.293 134.147 129.373 134.247 129.429C134.348 129.485 134.46 129.516 134.575 129.518H156.403C156.534 129.517 156.662 129.48 156.772 129.41C156.883 129.339 156.971 129.239 157.028 129.121L157.199 128.749L157.551 127.992L157.95 127.138C157.993 127.047 158.015 126.948 158.015 126.848C158.014 126.667 157.942 126.493 157.814 126.365C157.687 126.236 157.514 126.163 157.333 126.161Z" fill="#404E5C"/>
<path opacity="0.17" d="M157.199 128.748L157.026 129.122C156.97 129.24 156.882 129.34 156.772 129.41C156.662 129.48 156.534 129.517 156.403 129.518H134.575C134.46 129.516 134.348 129.486 134.247 129.43C134.147 129.374 134.062 129.294 134 129.198C133.938 129.101 133.9 128.991 133.891 128.876C133.881 128.762 133.9 128.647 133.946 128.541C133.954 128.521 133.964 128.503 133.977 128.487L157.199 128.748Z" fill="#141200"/>
<path opacity="0.17" d="M143.206 108.811V108.814L138.533 127.894H137.479L142.936 104.906L143.206 108.811Z" fill="#141200"/>
<path d="M148.94 112.307L142.326 61.9595C142.301 61.7708 142.203 61.5994 142.053 61.4831L137.499 55.7811L137.09 55.4659C136.939 55.3511 136.748 55.3003 136.559 55.3245L135.875 55.4163C135.686 55.4407 135.515 55.539 135.399 55.6898C135.282 55.8406 135.231 56.0314 135.255 56.2202L142.11 108.387V108.39L142.529 111.58L143.028 115.369V115.374L143.801 121.27C143.814 121.371 143.848 121.468 143.901 121.555C143.955 121.641 144.027 121.715 144.111 121.771C144.195 121.829 144.289 121.868 144.389 121.886C144.489 121.904 144.591 121.9 144.689 121.875L145.123 121.766C145.29 121.723 145.435 121.623 145.535 121.483L145.728 121.208L145.818 121.079L148.814 112.816C148.919 112.669 148.964 112.487 148.94 112.307Z" fill="#404E5C"/>
<path opacity="0.17" d="M137.498 55.7813L145.818 121.08L145.728 121.208L145.535 121.482C145.436 121.623 145.29 121.723 145.123 121.766L144.689 121.875C144.59 121.899 144.488 121.903 144.388 121.885C144.288 121.867 144.194 121.828 144.11 121.771C144.026 121.714 143.955 121.64 143.902 121.553C143.849 121.467 143.814 121.37 143.801 121.27L135.256 56.2211C135.231 56.0322 135.282 55.8412 135.398 55.6901C135.514 55.539 135.685 55.4401 135.874 55.4152L136.56 55.325C136.654 55.3124 136.748 55.3185 136.839 55.3429C136.93 55.3673 137.015 55.4095 137.089 55.4671L137.498 55.7813Z" fill="#141200"/>
<path d="M137.743 57.6487L142.159 63.9539L147.407 103.903L144.561 109.55L137.743 57.6487Z" fill="#BA2649"/>
<path d="M55.678 138.192C55.6787 138.317 55.6679 138.442 55.6458 138.565C55.6358 138.624 55.6234 138.681 55.6086 138.738C55.4878 139.2 55.2176 139.608 54.8402 139.899C54.4628 140.191 53.9995 140.349 53.5228 140.349H44.1902V162.618C44.1906 163.089 44.0363 163.547 43.7512 163.921C43.5379 163.67 43.3271 163.42 43.1187 163.167C42.0027 161.832 40.9239 160.467 39.8822 159.072V140.349H35.7156C35.1601 140.348 34.6261 140.133 34.2253 139.748C33.8245 139.363 33.5879 138.838 33.5648 138.283C33.5418 137.728 33.7341 137.185 34.1016 136.768C34.4691 136.351 34.9834 136.092 35.5371 136.046C35.5966 136.041 35.6561 136.039 35.7156 136.039H53.5228C54.094 136.038 54.6419 136.265 55.0461 136.669C55.4502 137.073 55.6775 137.621 55.678 138.192Z" fill="#404E5C"/>
<path d="M204.393 138.192C204.393 138.629 204.261 139.055 204.014 139.415C203.766 139.775 203.416 140.051 203.009 140.207C202.816 140.281 202.612 140.326 202.406 140.341C202.352 140.346 202.295 140.349 202.24 140.349H198.076V160.561C198.014 160.643 197.949 160.725 197.885 160.807C196.905 162.06 195.896 163.288 194.857 164.492C194.525 164.305 194.249 164.032 194.058 163.703C193.866 163.374 193.766 162.999 193.768 162.618V140.349H184.433C184.157 140.349 183.884 140.296 183.629 140.192C183.308 140.064 183.022 139.859 182.797 139.597C182.572 139.334 182.413 139.021 182.335 138.684V138.681C182.219 138.191 182.28 137.676 182.508 137.227C182.506 137.225 182.506 137.225 182.508 137.225C182.607 137.027 182.736 136.846 182.89 136.689C183.091 136.483 183.331 136.319 183.596 136.208C183.861 136.096 184.145 136.039 184.433 136.039H202.24C202.811 136.038 203.358 136.265 203.762 136.669C204.166 137.073 204.393 137.62 204.393 138.192L204.393 138.192Z" fill="#404E5C"/>
<path d="M204.25 96.6709C203.364 96.6709 202.486 96.8456 201.667 97.1849C200.848 97.5243 200.104 98.0217 199.478 98.6487C198.851 99.2758 198.354 100.02 198.015 100.839C197.675 101.659 197.501 102.537 197.501 103.424C197.501 104.99 198.045 106.508 199.041 107.717C200.036 108.926 201.421 109.751 202.958 110.051V121.096H207.266V96.6709H204.25Z" fill="#404E5C"/>
<path d="M86.408 121.329C85.9784 121.076 85.4986 120.921 85.0026 120.874C84.5065 120.828 84.0063 120.89 83.537 121.058C83.0678 121.225 82.641 121.494 82.2866 121.844C81.9323 122.195 81.6591 122.619 81.4863 123.086L73.7041 123.39L72.6555 127.017L83.719 127.583C84.5233 127.822 85.3871 127.757 86.1467 127.4C86.9062 127.044 87.5089 126.422 87.8403 125.651C88.1718 124.88 88.2091 124.014 87.9451 123.217C87.6811 122.421 87.1342 121.749 86.408 121.329Z" fill="#9E616A"/>
<path d="M80.0155 127.974L72.0216 127.875L71.0097 127.861L54.7458 127.656C54.7458 127.656 50.3292 123.44 46.4834 119.1L47.0224 115.2C47.5482 111.371 49.4463 107.865 52.3634 105.332C57.8715 109.014 61.0657 116.303 61.0657 116.303L66.4215 118.701C70.1906 118.869 73.8635 119.946 77.1281 121.838L78.8894 122.859L80.0155 127.974Z" fill="#BA2649"/>
<path d="M105.131 197.962H133.965C131.998 198.25 130.013 198.477 128.01 198.644H111.086C109.082 198.478 107.097 198.251 105.131 197.962Z" fill="#CCCCCC"/>
<path d="M110.928 183.439C111.486 178.4 114.536 173.402 119.31 171.701C117.488 176.904 117.564 182.584 119.525 187.736C120.289 189.72 121.344 191.848 120.678 193.867C120.263 195.123 119.221 196.094 118.05 196.708C116.879 197.322 115.574 197.624 114.285 197.921L114.034 198.135C111.92 193.527 110.37 188.478 110.928 183.439Z" fill="#CCCCCC"/>
<path d="M119.359 171.795C116.608 174.963 114.925 178.918 114.548 183.097C114.451 183.995 114.497 184.903 114.682 185.787C114.891 186.643 115.324 187.427 115.938 188.058C116.499 188.658 117.142 189.206 117.547 189.932C117.749 190.307 117.869 190.72 117.9 191.144C117.931 191.568 117.872 191.995 117.727 192.395C117.392 193.401 116.715 194.226 116.025 195.01C115.258 195.881 114.449 196.774 114.134 197.918C114.095 198.057 113.882 197.99 113.921 197.851C114.469 195.859 116.379 194.706 117.274 192.907C117.691 192.067 117.858 191.096 117.445 190.221C117.083 189.456 116.421 188.89 115.848 188.287C115.24 187.68 114.79 186.934 114.537 186.113C114.307 185.241 114.227 184.336 114.3 183.438C114.433 181.412 114.884 179.419 115.635 177.533C116.481 175.376 117.69 173.379 119.209 171.63C119.303 171.522 119.452 171.688 119.359 171.795Z" fill="#FEFBFC"/>
<path d="M114.59 181.744C113.898 181.586 113.285 181.186 112.86 180.617C112.434 180.048 112.225 179.346 112.27 178.637C112.272 178.608 112.285 178.581 112.307 178.562C112.328 178.542 112.356 178.532 112.385 178.533C112.414 178.534 112.442 178.547 112.462 178.567C112.482 178.588 112.493 178.616 112.493 178.645C112.45 179.305 112.645 179.959 113.042 180.488C113.439 181.017 114.012 181.387 114.658 181.531C114.798 181.562 114.73 181.775 114.59 181.744Z" fill="#FEFBFC"/>
<path d="M115.614 187.791C116.85 187.03 117.755 185.83 118.146 184.432C118.185 184.293 118.398 184.361 118.359 184.499C117.949 185.954 117.005 187.2 115.717 187.989C115.594 188.064 115.492 187.866 115.614 187.791Z" fill="#FEFBFC"/>
<path d="M116.691 175.585C116.946 175.702 117.227 175.754 117.507 175.736C117.787 175.718 118.058 175.631 118.296 175.482C118.418 175.405 118.52 175.604 118.399 175.68C118.135 175.843 117.836 175.939 117.526 175.96C117.217 175.98 116.907 175.925 116.624 175.798C116.596 175.788 116.573 175.768 116.56 175.742C116.546 175.716 116.543 175.686 116.551 175.658C116.56 175.63 116.58 175.606 116.606 175.593C116.632 175.579 116.663 175.576 116.691 175.585Z" fill="#FEFBFC"/>
<path d="M134.046 180.49C133.971 180.54 133.897 180.59 133.822 180.642C132.821 181.32 131.877 182.078 130.998 182.909C130.929 182.972 130.861 183.037 130.794 183.102C128.699 185.127 126.998 187.523 125.778 190.168C125.293 191.221 124.889 192.31 124.57 193.424C124.128 194.964 123.772 196.667 122.875 197.934C122.783 198.067 122.682 198.194 122.575 198.315L114.314 198.425C114.295 198.416 114.276 198.409 114.257 198.4L113.927 198.419C113.94 198.361 113.954 198.3 113.967 198.241C113.974 198.207 113.983 198.173 113.99 198.139C113.995 198.117 114 198.094 114.004 198.073C114.006 198.066 114.008 198.058 114.009 198.052C114.013 198.031 114.018 198.013 114.022 197.994C114.1 197.655 114.181 197.316 114.265 196.978C114.264 196.976 114.264 196.976 114.266 196.974C114.877 194.387 115.793 191.882 116.994 189.511C117.031 189.44 117.068 189.368 117.108 189.298C117.665 188.248 118.307 187.245 119.027 186.3C119.423 185.784 119.844 185.288 120.291 184.814C121.445 183.592 122.785 182.56 124.261 181.755C127.203 180.15 130.625 179.504 133.804 180.418C133.885 180.442 133.965 180.465 134.046 180.49Z" fill="#CCCCCC"/>
<path d="M134.029 180.595C129.926 181.468 126.203 183.611 123.387 186.721C122.769 187.38 122.259 188.132 121.875 188.95C121.527 189.759 121.401 190.646 121.512 191.52C121.598 192.336 121.782 193.162 121.668 193.985C121.604 194.406 121.452 194.808 121.221 195.166C120.99 195.523 120.687 195.828 120.33 196.06C119.457 196.661 118.42 196.913 117.397 197.123C116.261 197.357 115.078 197.582 114.137 198.306C114.023 198.394 113.893 198.212 114.007 198.124C115.644 196.864 117.863 197.094 119.66 196.196C120.499 195.777 121.216 195.102 121.413 194.155C121.584 193.326 121.396 192.475 121.301 191.648C121.181 190.798 121.271 189.931 121.563 189.123C121.904 188.288 122.385 187.518 122.984 186.844C124.31 185.307 125.868 183.987 127.603 182.934C129.577 181.721 131.743 180.855 134.009 180.373C134.149 180.343 134.168 180.566 134.029 180.595Z" fill="#FEFBFC"/>
<path d="M124.235 185.667C123.778 185.123 123.528 184.435 123.531 183.724C123.534 183.014 123.79 182.328 124.252 181.788C124.346 181.679 124.519 181.82 124.425 181.929C123.994 182.431 123.756 183.07 123.755 183.732C123.753 184.393 123.988 185.034 124.417 185.537C124.51 185.647 124.328 185.776 124.235 185.667Z" fill="#FEFBFC"/>
<path d="M121.413 191.112C122.859 191.249 124.302 190.835 125.457 189.955C125.571 189.867 125.7 190.049 125.586 190.137C124.383 191.051 122.88 191.478 121.376 191.332C121.233 191.318 121.271 191.098 121.413 191.112Z" fill="#FEFBFC"/>
<path d="M129.619 182.014C129.752 182.262 129.945 182.472 130.179 182.626C130.414 182.781 130.683 182.874 130.962 182.899C131.106 182.911 131.068 183.131 130.925 183.119C130.617 183.091 130.319 182.987 130.06 182.817C129.801 182.647 129.587 182.416 129.437 182.144C129.421 182.12 129.414 182.09 129.419 182.061C129.424 182.032 129.44 182.006 129.463 181.988C129.487 181.971 129.517 181.964 129.546 181.969C129.576 181.974 129.602 181.99 129.619 182.014Z" fill="#FEFBFC"/>
<path d="M138.331 187.51C139.782 187.51 140.958 186.333 140.958 184.882C140.958 183.43 139.782 182.253 138.331 182.253C136.88 182.253 135.704 183.43 135.704 184.882C135.704 186.333 136.88 187.51 138.331 187.51Z" fill="#CCCCCC"/>
<path d="M146.908 195.186C146.747 195.233 146.583 195.28 146.42 195.325C144.934 195.742 143.438 196.123 141.931 196.469C141.757 196.119 141.664 195.734 141.658 195.343C141.652 194.952 141.734 194.564 141.896 194.209C142.059 193.853 142.299 193.539 142.599 193.288C142.899 193.037 143.251 192.856 143.629 192.758C144.008 192.661 144.403 192.649 144.787 192.724C145.171 192.799 145.533 192.958 145.847 193.191C146.161 193.423 146.419 193.723 146.603 194.068C146.787 194.414 146.891 194.796 146.908 195.186Z" fill="#CCCCCC"/>
<path d="M161.918 189.544C161.717 189.638 161.516 189.732 161.315 189.824C161.097 189.928 160.876 190.028 160.658 190.127C160.412 190.239 160.169 190.348 159.924 190.457C159.001 190.869 158.069 191.266 157.134 191.648C157.121 191.628 157.109 191.606 157.096 191.584C156.769 190.969 156.698 190.25 156.9 189.584C157.102 188.918 157.559 188.359 158.172 188.03C158.785 187.701 159.504 187.628 160.17 187.828C160.836 188.028 161.396 188.485 161.727 189.097C161.803 189.241 161.867 189.39 161.918 189.544Z" fill="#CCCCCC"/>
<path d="M147.597 181.059C149.048 181.059 150.224 179.882 150.224 178.43C150.224 176.979 149.048 175.802 147.597 175.802C146.146 175.802 144.97 176.979 144.97 178.43C144.97 179.882 146.146 181.059 147.597 181.059Z" fill="#CCCCCC"/>
<path d="M123.498 34.4161C108.045 38.4829 90.9219 40.9568 73.5116 41.6342C70.96 41.7732 68.4024 41.7558 65.853 41.5821C60.2504 41.1106 55.4514 39.3489 50.1068 38.3862C47.5374 37.9246 44.6754 37.5872 42.0886 37.0884C42.6863 36.3465 43.2948 35.6137 43.914 34.89C49.4917 35.3615 55.1563 36.9048 60.801 37.6219C70.3965 38.8427 81.1478 37.4805 88.422 34.1208C91.9511 32.4906 94.6545 30.4559 98.1712 28.8183C98.6496 28.5726 99.1677 28.4138 99.7015 28.3493C100.815 28.2476 101.792 28.6967 102.588 29.0987C108.488 32.0787 117.055 34.5005 125.006 33.168C125.599 33.632 124.473 34.1605 123.498 34.4161Z" fill="#FEFBFC"/>
<path d="M158.683 44.9034C158.756 44.8901 158.829 44.8798 158.902 44.8672C158.596 44.6778 158.308 44.461 158.042 44.2195L158.683 44.9034Z" fill="#FEFBFC"/>
<path d="M206.282 50.7829C202.961 51.0484 199.622 51.2461 196.267 51.3759C193.715 51.5137 191.158 51.4963 188.608 51.3238C183.006 50.8499 178.207 49.0906 172.862 48.1279C167.964 47.247 162.012 46.8227 158.902 44.8675C166.94 43.4755 175.268 46.3091 183.556 47.3637C190.261 48.1885 197.057 47.8527 203.648 46.3711C204.565 47.8153 205.443 49.2858 206.282 50.7829Z" fill="#FEFBFC"/>
<path d="M131.526 88.0032C123.746 61.2874 119.167 33.7417 119.167 5.91514V3.89844H116.582V5.9151C116.582 33.7417 112.003 61.2874 104.223 88.0033C103.847 89.2966 103.657 90.6368 103.657 91.9838C103.657 92.4932 103.758 92.9977 103.953 93.4683C104.147 93.939 104.433 94.3666 104.793 94.7269C105.153 95.0871 105.581 95.3728 106.051 95.5678C106.521 95.7627 107.026 95.8631 107.535 95.8631H112.705C112.705 96.5423 112.838 97.2149 113.098 97.8424C113.358 98.47 113.739 99.0402 114.219 99.5205C114.699 100.001 115.269 100.382 115.896 100.642C116.523 100.902 117.196 101.035 117.875 101.035C118.553 101.035 119.226 100.902 119.853 100.642C120.48 100.382 121.05 100.001 121.53 99.5205C122.01 99.0402 122.391 98.47 122.651 97.8424C122.911 97.2149 123.044 96.5423 123.044 95.8631H127.067V107.011C126.5 107.028 125.96 107.261 125.559 107.663C125.158 108.065 124.926 108.605 124.911 109.173C124.896 109.741 125.098 110.293 125.477 110.716C125.856 111.139 126.382 111.401 126.948 111.448C127.513 111.496 128.076 111.324 128.519 110.97C128.963 110.615 129.254 110.104 129.332 109.542C129.411 108.979 129.272 108.408 128.943 107.945C128.614 107.482 128.12 107.163 127.563 107.052V95.8631H128.214C129.243 95.8631 130.229 95.4544 130.956 94.7269C131.683 93.9994 132.092 93.0126 132.092 91.9838C132.092 90.6368 131.902 89.2966 131.526 88.0032Z" fill="#FEFBFC"/>
</g>
<defs>
<clipPath id="clip0_50_982">
<rect width="219" height="199" fill="white"/>
</clipPath>
</defs>
</svg>
