<svg width="239" height="205" viewBox="0 0 239 205" fill="none" xmlns="http://www.w3.org/2000/svg">
<g clip-path="url(#clip0_23_190)">
<path d="M17.9468 188.127C19.324 188.61 20.8026 188.732 22.2403 188.479C23.6779 188.225 25.0261 187.607 26.155 186.681C29.0299 184.269 29.9315 180.297 30.6647 176.617L32.834 165.734L28.2924 168.86C25.0261 171.108 21.6865 173.428 19.4251 176.684C17.1638 179.94 16.1772 184.385 17.9936 187.908" fill="#E6E6E6"/>
<path d="M18.6481 202.06C18.0764 197.898 17.4883 193.681 17.8902 189.474C18.2464 185.737 19.387 182.088 21.7089 179.094C22.9414 177.509 24.4411 176.151 26.1407 175.08C26.5837 174.801 26.9916 175.502 26.5504 175.781C23.6097 177.639 21.3352 180.382 20.0547 183.615C18.6405 187.21 18.4134 191.129 18.657 194.948C18.8042 197.258 19.1171 199.553 19.4314 201.844C19.4562 201.948 19.4407 202.057 19.388 202.15C19.3354 202.242 19.2495 202.312 19.1477 202.343C19.0439 202.371 18.9332 202.357 18.8398 202.304C18.7463 202.251 18.6775 202.163 18.6484 202.06L18.6481 202.06Z" fill="#F2F2F2"/>
<path d="M22.7626 195.381C23.3531 196.278 24.165 197.009 25.1199 197.502C26.0749 197.994 27.1407 198.233 28.2147 198.194C30.9754 198.064 33.276 196.138 35.3468 194.31L41.4731 188.903L37.4186 188.709C34.5029 188.57 31.5118 188.439 28.7346 189.339C25.9574 190.238 23.3962 192.401 22.8884 195.274" fill="#E6E6E6"/>
<path d="M17.0323 204.453C19.7843 199.586 22.9761 194.177 28.68 192.448C30.2658 191.969 31.9286 191.797 33.5788 191.942C34.099 191.987 33.9691 192.788 33.45 192.744C30.6837 192.514 27.9227 193.244 25.6318 194.811C23.4273 196.311 21.7108 198.396 20.2582 200.607C19.3683 201.962 18.5712 203.374 17.7741 204.784C17.5194 205.235 16.7746 204.909 17.0323 204.453Z" fill="#F2F2F2"/>
<path d="M237.237 144.367H85.5129C85.0453 144.366 84.5971 144.18 84.2666 143.85C83.936 143.519 83.75 143.071 83.7494 142.604V1.76272C83.75 1.2954 83.936 0.847403 84.2666 0.516962C84.5972 0.186522 85.0453 0.000610896 85.5129 0H237.237C237.704 0.000610896 238.152 0.186522 238.483 0.516962C238.813 0.847403 238.999 1.2954 239 1.76272V142.604C238.999 143.071 238.814 143.519 238.483 143.85C238.152 144.18 237.704 144.366 237.237 144.367Z" fill="#FEFBFC"/>
<path d="M237.237 144.367H85.5129C85.0453 144.366 84.5971 144.18 84.2666 143.85C83.936 143.519 83.75 143.071 83.7494 142.604V1.76272C83.75 1.2954 83.936 0.847403 84.2666 0.516962C84.5972 0.186522 85.0453 0.000610896 85.5129 0H237.237C237.704 0.000610896 238.152 0.186522 238.483 0.516962C238.813 0.847403 238.999 1.2954 239 1.76272V142.604C238.999 143.071 238.814 143.519 238.483 143.85C238.152 144.18 237.704 144.366 237.237 144.367ZM85.5129 0.703698C85.2327 0.704306 84.9641 0.815835 84.766 1.01387C84.5679 1.21191 84.4563 1.48034 84.4557 1.7604V142.604C84.4563 142.884 84.5679 143.152 84.766 143.35C84.9641 143.548 85.2327 143.66 85.5129 143.66H237.237C237.517 143.66 237.785 143.548 237.983 143.35C238.182 143.152 238.293 142.884 238.294 142.604V1.76272C238.293 1.48265 238.181 1.21422 237.983 1.01619C237.785 0.818148 237.517 0.706619 237.237 0.706011L85.5129 0.703698Z" fill="#CACACA"/>
<path d="M157.205 36.5981C156.888 36.5987 156.584 36.725 156.36 36.9494C156.136 37.1737 156.01 37.4778 156.01 37.7949C156.01 38.1119 156.136 38.416 156.36 38.6403C156.584 38.8647 156.888 38.991 157.205 38.9916H222.899C223.216 38.991 223.52 38.8647 223.744 38.6403C223.969 38.416 224.094 38.1119 224.094 37.7949C224.094 37.4778 223.969 37.1737 223.744 36.9494C223.52 36.725 223.216 36.5987 222.899 36.5981H157.205Z" fill="#E4E4E4"/>
<path d="M157.205 43.7791C156.888 43.7798 156.584 43.9062 156.36 44.1306C156.136 44.3549 156.011 44.6589 156.011 44.9758C156.011 45.2927 156.136 45.5966 156.36 45.821C156.584 46.0453 156.888 46.1717 157.205 46.1725H190.743C191.06 46.1717 191.364 46.0453 191.588 45.821C191.812 45.5966 191.938 45.2927 191.938 44.9758C191.938 44.6589 191.812 44.3549 191.588 44.1306C191.364 43.9062 191.06 43.7798 190.743 43.7791H157.205Z" fill="#E4E4E4"/>
<path d="M99.7862 82.3958C99.4692 82.3965 99.1654 82.5229 98.9415 82.7473C98.7176 82.9716 98.5919 83.2756 98.5919 83.5925C98.5919 83.9094 98.7176 84.2133 98.9415 84.4377C99.1654 84.662 99.4692 84.7884 99.7862 84.7892H222.963C223.28 84.7884 223.584 84.662 223.808 84.4377C224.032 84.2133 224.157 83.9094 224.157 83.5925C224.157 83.2756 224.032 82.9716 223.808 82.7473C223.584 82.5229 223.28 82.3965 222.963 82.3958H99.7862Z" fill="#E4E4E4"/>
<path d="M99.7862 89.5767C99.4692 89.5774 99.1654 89.7038 98.9415 89.9282C98.7176 90.1525 98.5919 90.4565 98.5919 90.7734C98.5919 91.0903 98.7176 91.3942 98.9415 91.6186C99.1654 91.8429 99.4692 91.9693 99.7862 91.9701H190.807C191.124 91.9693 191.428 91.8429 191.652 91.6186C191.876 91.3942 192.002 91.0903 192.002 90.7734C192.002 90.4565 191.876 90.1525 191.652 89.9282C191.428 89.7038 191.124 89.5774 190.807 89.5767H99.7862Z" fill="#E4E4E4"/>
<path d="M99.7862 96.5952C99.4692 96.596 99.1654 96.7224 98.9415 96.9467C98.7176 97.1711 98.5919 97.475 98.5919 97.7919C98.5919 98.1088 98.7176 98.4128 98.9415 98.6371C99.1654 98.8615 99.4692 98.9879 99.7862 98.9886H222.963C223.28 98.9879 223.584 98.8615 223.808 98.6371C224.032 98.4128 224.157 98.1088 224.157 97.7919C224.157 97.475 224.032 97.1711 223.808 96.9467C223.584 96.7224 223.28 96.596 222.963 96.5952H99.7862Z" fill="#E4E4E4"/>
<path d="M99.7862 103.776C99.4692 103.777 99.1654 103.903 98.9415 104.128C98.7176 104.352 98.5919 104.656 98.5919 104.973C98.5919 105.29 98.7176 105.594 98.9415 105.818C99.1654 106.042 99.4692 106.169 99.7862 106.17H190.807C191.124 106.169 191.428 106.042 191.652 105.818C191.876 105.594 192.002 105.29 192.002 104.973C192.002 104.656 191.876 104.352 191.652 104.128C191.428 103.903 191.124 103.777 190.807 103.776H99.7862Z" fill="#E4E4E4"/>
<path d="M99.7862 110.982C99.4692 110.982 99.1654 111.109 98.9415 111.333C98.7176 111.558 98.5919 111.862 98.5919 112.178C98.5919 112.495 98.7176 112.799 98.9415 113.024C99.1654 113.248 99.4692 113.374 99.7862 113.375H222.963C223.28 113.374 223.584 113.248 223.808 113.024C224.032 112.799 224.157 112.495 224.157 112.178C224.157 111.862 224.032 111.558 223.808 111.333C223.584 111.109 223.28 110.982 222.963 110.982H99.7862Z" fill="#E4E4E4"/>
<path d="M99.7862 118.163C99.4692 118.163 99.1654 118.29 98.9415 118.514C98.7176 118.738 98.5919 119.042 98.5919 119.359C98.5919 119.676 98.7176 119.98 98.9415 120.204C99.1654 120.429 99.4692 120.555 99.7862 120.556H190.807C191.124 120.555 191.428 120.429 191.652 120.204C191.876 119.98 192.002 119.676 192.002 119.359C192.002 119.042 191.876 118.738 191.652 118.514C191.428 118.29 191.124 118.163 190.807 118.163H99.7862Z" fill="#E4E4E4"/>
<path d="M119.296 58.5787C115.894 58.5787 112.569 57.5704 109.74 55.6811C106.911 53.7919 104.706 51.1066 103.405 47.9649C102.103 44.8232 101.762 41.3662 102.426 38.031C103.089 34.6958 104.728 31.6321 107.133 29.2276C109.539 26.823 112.604 25.1855 115.94 24.522C119.277 23.8586 122.735 24.1991 125.878 25.5004C129.022 26.8018 131.708 29.0055 133.598 31.8329C135.488 34.6604 136.497 37.9846 136.497 41.3852C136.492 45.9436 134.678 50.3138 131.453 53.537C128.229 56.7603 123.857 58.5735 119.296 58.5787Z" fill="#BA2649"/>
<path d="M67.0825 123.589C67.0527 122.961 66.8857 122.348 66.5931 121.791C66.3005 121.235 65.8896 120.75 65.3891 120.37C64.8887 119.99 64.3109 119.724 63.6966 119.591C63.0822 119.459 62.4463 119.462 61.8334 119.602L56.1479 111.593L50.436 113.859L58.624 125.057C58.9267 126.07 59.5908 126.938 60.4905 127.495C61.3902 128.051 62.463 128.259 63.5057 128.078C64.5483 127.897 65.4882 127.34 66.1475 126.513C66.8067 125.685 67.1394 124.645 67.0825 123.589Z" fill="#A0616A"/>
<path d="M56.0015 122.995L38.798 100.686L45.244 80.4362C45.7164 75.345 48.9036 73.9234 49.0392 73.8653L49.2461 73.7766L54.8553 88.7286L50.7368 99.7066L60.8455 116.701L56.0015 122.995Z" fill="#3F3D56"/>
<path d="M115.747 54.2249C115.123 54.3031 114.524 54.517 113.992 54.8515C113.46 55.1861 113.008 55.6332 112.668 56.1613C112.327 56.6894 112.107 57.2857 112.022 57.9082C111.937 58.5307 111.989 59.1643 112.176 59.7643L104.627 66.0496L107.329 71.5667L117.865 62.5409C118.853 62.1609 119.667 61.432 120.152 60.4923C120.638 59.5526 120.762 58.4674 120.501 57.4424C120.24 56.4173 119.612 55.5236 118.736 54.9306C117.859 54.3376 116.796 54.0865 115.747 54.2249Z" fill="#A0616A"/>
<path d="M116.011 65.3137L95.0901 84.1833L74.3936 79.3249C69.279 79.2478 67.6146 76.1815 67.5462 76.0508L67.4417 75.8515L81.9216 69.1054L93.1898 72.361L109.359 60.9729L116.011 65.3137Z" fill="#3F3D56"/>
<path d="M79.7726 199.458L85.3938 199.457L88.0676 177.785L79.7716 177.786L79.7726 199.458Z" fill="#A0616A"/>
<path d="M96.2346 204.674L78.5682 204.675L78.5679 197.852L91.2779 197.852C92.5924 197.852 93.8531 198.374 94.7826 199.303C95.7122 200.232 96.2344 201.492 96.2345 202.806L96.2346 204.674Z" fill="#412E2E"/>
<path d="M57.3058 199.458L62.927 199.457L65.6012 177.785L57.3051 177.786L57.3058 199.458Z" fill="#A0616A"/>
<path d="M73.768 204.674L56.1017 204.675L56.1013 197.852L68.8114 197.852C69.4622 197.852 70.1068 197.98 70.7081 198.229C71.3094 198.478 71.8558 198.843 72.3161 199.303C72.7764 199.763 73.1415 200.309 73.3906 200.91C73.6397 201.511 73.7679 202.155 73.7679 202.806L73.768 204.674Z" fill="#412E2E"/>
<path d="M55.3067 120.351L55.7651 152.433L56.2239 194.597L66.3107 193.68L71.3544 135.476L77.7734 193.68H88.187L89.2359 135.017L85.5679 122.185L55.3067 120.351Z" fill="#252F39"/>
<path d="M75.0496 124.66C64.0743 124.66 53.9716 119.695 53.8352 119.627L53.7219 119.57L52.8009 97.4761C52.5338 96.6954 47.2747 81.2894 46.3839 76.3926C45.4815 71.4315 58.5609 67.0774 60.1492 66.5683L60.5096 62.5772L75.1667 60.9985L77.0244 66.1052L82.2828 68.0761C82.8789 68.2997 83.3722 68.7341 83.6694 69.297C83.9665 69.8599 84.0467 70.5122 83.8948 71.1303L80.9722 83.0101L88.11 122.314L86.5733 122.38C82.8899 124.043 78.9145 124.659 75.0496 124.66Z" fill="#394652"/>
<path d="M73.4738 57.1782C78.5879 54.3837 80.4674 47.9744 77.6718 42.8625C74.8761 37.7505 68.464 35.8718 63.3499 38.6663C58.2358 41.4607 56.3563 47.8701 59.152 52.982C61.9476 58.0939 68.3597 59.9726 73.4738 57.1782Z" fill="#A0616A"/>
<path d="M59.8645 58.1342C61.8757 60.2756 65.6108 59.1261 65.8728 56.2006C65.8934 55.9734 65.8919 55.7448 65.8684 55.518C65.7331 54.2221 64.9841 53.0456 65.1635 51.6774C65.2041 51.3368 65.331 51.0123 65.5322 50.7346C67.1349 48.5894 70.897 51.694 72.4095 49.7521C73.337 48.5613 72.2468 46.6865 72.9585 45.3556C73.8978 43.599 76.6801 44.4655 78.4249 43.5036C80.3662 42.4332 80.2501 39.456 78.9722 37.6451C77.4138 35.4366 74.6813 34.2582 71.9829 34.0884C69.2845 33.9185 66.6047 34.6477 64.0855 35.629C61.2231 36.744 58.3847 38.285 56.6233 40.8007C54.4812 43.8602 54.2751 47.9733 55.3464 51.5508C55.9981 53.727 58.2222 56.3855 59.8645 58.1342Z" fill="#412E2E"/>
<path d="M134.096 204.946H0.351038C0.257937 204.946 0.168643 204.909 0.102811 204.843C0.0369786 204.778 0 204.688 0 204.595C0 204.502 0.0369786 204.413 0.102811 204.347C0.168643 204.281 0.257937 204.244 0.351038 204.244H134.096C134.189 204.244 134.279 204.281 134.345 204.347C134.41 204.413 134.447 204.502 134.447 204.595C134.447 204.688 134.41 204.778 134.345 204.843C134.279 204.909 134.189 204.946 134.096 204.946Z" fill="#CACACA"/>
<path d="M118.303 47.8791C117.993 47.8795 117.694 47.7622 117.467 47.5508L111.795 42.2849C111.557 42.0632 111.416 41.7559 111.404 41.4306C111.393 41.1054 111.51 40.7887 111.732 40.5502C111.954 40.3117 112.261 40.1709 112.586 40.1587C112.912 40.1466 113.229 40.264 113.467 40.4853L118.272 44.9457L127.776 35.445C127.89 35.3303 128.026 35.2391 128.175 35.1768C128.324 35.1146 128.485 35.0823 128.646 35.082C128.808 35.0817 128.968 35.1134 129.118 35.1751C129.267 35.2368 129.403 35.3275 129.517 35.4418C129.632 35.5562 129.722 35.6919 129.784 35.8414C129.846 35.9908 129.877 36.151 129.877 36.3126C129.877 36.4743 129.845 36.6343 129.782 36.7835C129.72 36.9327 129.629 37.0681 129.514 37.182L119.172 47.5195C119.058 47.6337 118.922 47.7242 118.773 47.7859C118.624 47.8476 118.464 47.8793 118.303 47.8791Z" fill="#FEFBFC"/>
</g>
<defs>
<clipPath id="clip0_23_190">
<rect width="239" height="205" fill="white"/>
</clipPath>
</defs>
</svg>
